<svg width="66" height="50" viewBox="0 0 66 50" fill="none" xmlns="http://www.w3.org/2000/svg">
<path d="M33.0585 0.00687904C26.383 0.00687904 19.7603 2.38261 13.289 7.1937C6.89788 11.9452 2.92151 17.4396 1.54102 19.5356C-0.513672 22.6566 -0.513672 26.6743 1.54102 29.7953C2.92151 31.8935 6.89788 37.3926 13.289 42.1418C19.7626 46.9528 26.3853 49.3286 33.0585 49.3286C43.3227 49.3286 51.6974 43.5658 56.9351 38.6561L56.9488 38.6424C57.4808 38.1425 57.5061 37.3559 57.0084 36.8262C56.5108 36.2964 55.7288 36.2712 55.1968 36.7711C50.3857 41.2864 42.6325 46.7625 33.0585 46.7625C26.1354 46.7625 19.8956 43.8181 14.8552 40.0848C9.81481 36.3515 5.9508 31.8224 3.68743 28.3827C2.20375 26.1285 2.20375 23.1978 3.68743 20.9413C5.94851 17.5015 9.81481 12.9748 14.8552 9.24381C19.8956 5.5128 26.1331 2.56607 33.0585 2.56607C39.9816 2.56607 46.2076 5.5151 51.2273 9.25069C56.2471 12.9863 60.0882 17.5176 62.3309 20.962C63.794 23.2047 63.794 26.1147 62.3309 28.3597C61.9342 28.9674 62.0993 29.7402 62.707 30.1347C63.3147 30.5291 64.0921 30.364 64.4865 29.7586C66.5045 26.6582 66.5045 22.6612 64.4865 19.5608C63.1198 17.4626 59.1778 11.9612 52.8142 7.20517C46.3635 2.38261 39.7477 0 33.0654 0L33.0585 0.00687904ZM33.1296 10.7527C25.4451 10.7527 19.2191 16.9833 19.2191 24.6677C19.2191 32.3522 25.4451 38.5827 33.1296 38.5827C40.814 38.5827 47.0446 32.3522 47.0446 24.6677C47.0446 16.9833 40.814 10.7527 33.1296 10.7527ZM33.1296 13.3211C39.3739 13.3211 44.4785 18.4257 44.4785 24.67C44.4785 30.9144 39.3739 36.019 33.1296 36.019C26.8852 36.019 21.7806 30.9144 21.7806 24.67C21.7806 18.4257 26.8852 13.3211 33.1296 13.3211Z" fill="currentColor"/>
</svg>
