<svg width="80" height="90" viewBox="0 0 80 90" fill="none" xmlns="http://www.w3.org/2000/svg">
<path d="M78.9525 16.048C78.9285 15.886 78.9925 15.687 79.1115 15.567C79.1845 15.494 79.2615 15.46 79.3385 15.472C79.4605 15.49 79.5805 15.432 79.6445 15.325C79.7085 15.221 79.6995 15.086 79.6265 14.985C79.3605 14.63 78.9805 14.446 78.6135 14.272C78.4515 14.192 78.2985 14.119 78.1605 14.033C77.9215 13.886 77.7255 13.614 77.6925 13.387C77.6745 13.246 77.7235 13.173 77.7625 13.13C77.8605 13.023 77.8695 12.854 77.7775 12.738C77.6885 12.622 77.5265 12.585 77.3945 12.652C77.2655 12.719 77.1315 12.725 76.9785 12.673C76.6695 12.569 76.3355 12.229 76.1515 11.834C76.0935 11.702 76.0355 11.565 75.9795 11.427C75.7495 10.867 75.4895 10.233 74.8925 9.91204C74.8285 9.87504 74.7575 9.84204 74.6875 9.80804C74.5925 9.76204 74.4735 9.70704 74.3875 9.64904C74.6015 9.49304 74.7395 9.23904 74.7335 8.96604C74.7305 8.88304 74.6935 8.80104 74.6295 8.74604C74.5655 8.69104 74.4825 8.66304 74.3965 8.67304C73.6435 8.74604 72.8685 8.52304 72.2755 8.05804C72.1015 7.92304 71.9445 7.77004 71.7765 7.60804C71.5745 7.41504 71.3695 7.21604 71.1335 7.04204C70.2155 6.38104 68.9625 6.26404 67.9405 6.74804C67.1205 7.13404 66.5445 7.82904 65.9875 8.49904L65.7825 8.74404C65.2285 9.40204 64.5486 10.094 63.6976 10.235C63.2686 10.305 62.7605 10.146 62.4305 9.83704C62.2655 9.68104 62.0786 9.42104 62.1156 9.07504C62.1436 8.83304 62.2685 8.59404 62.4035 8.34304C62.5745 8.02204 62.7525 7.68804 62.7645 7.28704C62.7735 7.01804 62.7035 6.77604 62.6355 6.54004C62.5985 6.40804 62.5656 6.28604 62.5436 6.16704C62.5066 5.93404 62.5745 5.65304 62.7365 5.60704C62.8495 5.57304 62.9325 5.47804 62.9535 5.36204C62.9715 5.24604 62.9225 5.12904 62.8275 5.06204C62.0595 4.51704 61.5176 3.67804 61.3396 2.75404C61.3186 2.63204 61.2235 2.53704 61.1035 2.51204C60.9815 2.48804 60.8585 2.53704 60.7885 2.63804C59.9405 3.85904 58.9335 4.95904 57.7885 5.90404C57.7575 5.93204 57.7335 5.95904 57.7155 5.99604C57.4095 6.55604 57.0916 7.13804 56.6136 7.54504C56.2436 7.86004 55.6125 8.14804 55.0495 7.91504C54.9635 7.88104 54.8626 7.88704 54.7836 7.93304C54.7006 7.97904 54.6456 8.06204 54.6306 8.15304C54.5056 8.99504 53.9605 9.76904 53.2105 10.174C53.1245 10.22 53.0635 10.306 53.0515 10.4C52.8315 12.023 52.8436 13.66 53.0886 15.277C50.7806 14.977 48.7995 15.8 47.5935 17.616C47.1255 17.252 46.6995 16.872 46.3755 16.404C46.3755 16.404 46.3725 16.401 46.3695 16.401C46.3605 16.383 46.3415 16.373 46.3265 16.358C46.3115 16.346 46.2985 16.327 46.2805 16.318C46.2775 16.318 46.2775 16.315 46.2745 16.315C45.7055 15.99 45.5185 14.907 45.3835 14.117C45.3625 13.995 45.3435 13.875 45.3225 13.762C44.9945 12.008 43.8745 10.584 42.7875 9.20404C42.6655 9.04804 42.5395 8.88904 42.4175 8.73304C40.0935 5.74204 39.0715 3.23504 39.1965 0.85004C39.1995 0.77704 39.1755 0.71204 39.1385 0.66004C39.1075 0.51604 39.0375 0.37804 38.9185 0.26804C38.6735 0.0420396 38.2725 -0.0559605 37.9385 0.0320395C37.1335 0.243039 36.6986 1.10004 36.6866 1.83504C36.6716 2.55404 36.9625 3.22204 37.2595 3.84304C38.2025 5.81404 39.3255 7.71604 40.5965 9.49704C40.7315 9.69004 40.8725 9.88004 41.0095 10.073C42.0075 11.447 43.0395 12.868 43.3145 14.503C43.4185 15.103 43.3875 15.623 43.2285 16.046C43.0235 16.591 42.5946 17.026 42.1446 17.488C42.0496 17.583 41.9545 17.681 41.8625 17.776C41.5285 18.128 41.2225 18.498 40.9375 18.887C39.4375 19.377 38.1856 20.5 37.5826 21.921C37.5576 21.976 37.5576 22.034 37.5676 22.089C37.5366 22.083 37.5065 22.08 37.4755 22.077C37.0045 19.701 35.1245 17.583 32.7455 16.772C32.1825 16.579 31.5915 16.46 30.9915 16.405C29.9785 14.443 29.3105 12.327 28.9615 9.94604C28.9495 9.84804 28.8885 9.76204 28.7995 9.71604C28.7105 9.67304 28.6065 9.67304 28.5175 9.71904C27.8015 10.089 26.9045 9.41304 26.4325 8.97804L26.3625 8.91104C25.7015 8.29604 24.8775 7.53004 23.8645 7.64704C23.6995 7.66504 23.5465 7.70804 23.3995 7.74804C23.2675 7.78204 23.1455 7.81504 23.0265 7.83104C22.3625 7.91104 21.7315 7.41504 21.1435 6.90604C21.0335 6.80804 20.8675 6.80504 20.7515 6.89704C20.1235 7.39304 19.2485 7.58304 18.4705 7.39004C18.4065 7.37204 18.3385 7.35304 18.2715 7.33504C17.9165 7.23704 17.5125 7.12104 17.1145 7.29804C16.8845 7.39904 16.7255 7.57004 16.5845 7.72404L16.4985 7.81604C15.9165 8.41304 15.0135 8.70104 14.1935 8.54804L14.1295 8.53604C13.7625 8.46604 13.2535 8.36804 12.9325 8.75004C12.8005 8.90904 12.7575 9.09604 12.7245 9.24604L12.7035 9.32904C12.6145 9.69004 12.3515 10.012 11.9875 10.214C11.6205 10.413 11.2095 10.462 10.8545 10.346C10.7655 10.315 10.6675 10.331 10.5885 10.383C10.5085 10.435 10.4595 10.524 10.4535 10.616C10.4225 11.106 10.0895 11.602 9.55955 11.939C9.05155 12.264 8.43255 12.426 7.83855 12.582C7.71355 12.616 7.62155 12.723 7.60855 12.851C7.59655 12.977 7.66655 13.099 7.78355 13.154C8.40755 13.451 8.88255 14.057 9.02055 14.737C9.02955 14.786 9.03855 14.838 9.04855 14.89C9.08555 15.101 9.12555 15.343 9.26555 15.56C9.41255 15.79 9.63255 15.937 9.84755 16.065C10.8605 16.674 11.9385 17.176 13.0555 17.559C13.9215 17.853 14.7085 18.174 14.8465 18.826C14.9685 19.411 14.4305 19.999 13.8515 20.179C13.2115 20.381 12.5165 20.262 11.7395 20.099C10.9375 19.931 10.1355 19.762 9.33355 19.964C9.23855 19.988 9.15855 20.059 9.12555 20.151C9.08855 20.243 9.09755 20.347 9.15355 20.43C9.36155 20.748 9.14155 21.241 8.81355 21.48C8.47355 21.731 8.03855 21.832 7.57955 21.939L7.35255 21.991C7.02755 22.071 6.66655 22.196 6.47055 22.521C6.31755 22.775 6.32355 23.048 6.32955 23.289C6.33255 23.362 6.33555 23.439 6.32955 23.512C6.27455 24.476 5.01655 24.945 4.63055 25.064C4.35855 25.15 3.98455 25.266 3.82255 25.621C3.72155 25.835 3.74255 26.053 3.76155 26.227C3.77055 26.316 3.77955 26.402 3.77055 26.469C3.73355 26.717 3.47655 26.855 3.05455 27.057C2.82455 27.161 2.59255 27.274 2.39055 27.43C2.05955 27.687 1.86755 28.033 1.68355 28.37C1.64355 28.44 1.60755 28.511 1.56755 28.578C1.20655 29.202 0.707548 29.757 0.125548 30.182C0.0245482 30.255 -0.021452 30.384 0.00954804 30.507C0.040548 30.629 0.144548 30.718 0.269548 30.734C1.44155 30.881 2.58655 31.199 3.66755 31.677C4.03155 31.836 4.40255 32.026 4.61955 32.323C4.80055 32.562 4.87055 32.944 4.68655 33.168C4.58855 33.287 4.59155 33.462 4.69855 33.572C4.80255 33.685 4.97755 33.701 5.09955 33.612C5.60455 33.248 6.36355 33.373 7.48755 34.013L10.1535 35.531C10.8795 35.944 11.7235 36.312 12.4705 35.908C12.6325 35.819 12.7705 35.703 12.9025 35.59C13.0775 35.44 13.2305 35.311 13.3895 35.296C13.5025 35.29 13.6375 35.333 13.7845 35.385C14.0115 35.462 14.2955 35.556 14.5925 35.462C14.9565 35.346 15.1405 35.024 15.2875 34.764C15.8785 33.732 16.6985 32.832 17.6695 32.159C17.9945 31.932 18.4535 31.743 18.6735 31.951C18.7715 32.043 18.8145 32.217 18.8415 32.358C19.0925 33.659 18.4645 35.119 17.3475 35.833L17.2435 35.897C17.0595 36.01 16.8515 36.136 16.6985 36.341C16.4815 36.626 16.4325 36.972 16.3955 37.25L15.9305 40.614C15.9125 40.752 15.9885 40.886 16.1205 40.938C16.6775 41.158 17.2445 40.969 17.7435 40.8C17.9145 40.742 18.0805 40.687 18.2425 40.647C18.5635 40.57 19.0015 40.671 19.1975 40.873C19.3045 40.98 19.2985 41.075 19.2805 41.142C19.2525 41.24 19.2775 41.344 19.3445 41.421C19.4025 41.488 19.4885 41.525 19.5775 41.525C19.5865 41.525 19.5985 41.525 19.6115 41.525C20.5205 41.424 21.3715 40.87 21.8345 40.08C21.8865 39.988 21.9355 39.896 21.9845 39.801C22.0885 39.599 22.1865 39.409 22.3275 39.278C22.4165 39.195 22.5605 39.143 22.6735 39.149C22.7565 39.155 22.7865 39.192 22.7955 39.204C22.8165 39.235 22.8475 39.256 22.8785 39.274C23.2125 39.712 23.5975 40.107 24.0325 40.443C23.5855 40.755 23.1505 41.107 22.7345 41.502C21.0235 43.134 19.9825 45.096 19.8045 47.025C19.5905 49.312 20.7105 51.583 22.5265 52.551C23.2735 52.949 24.1395 53.148 25.0705 53.148C25.8085 53.148 26.5855 53.023 27.3755 52.771C28.7285 52.342 30.0055 51.559 31.0675 50.506C31.2815 50.298 31.4865 50.062 31.6855 49.811L31.9335 49.937C30.5345 51.4 29.5545 53.268 29.1725 55.255C29.1265 55.258 29.0775 55.267 29.0345 55.295C27.0235 56.492 25.7375 58.868 25.8325 61.206C25.9275 63.517 27.3725 65.755 29.4385 66.799C28.3575 68.317 27.7455 70.24 27.6695 72.377C27.5995 74.342 28.0795 75.925 29.0565 76.951C29.9535 77.891 31.3495 78.414 32.8985 78.414C33.1775 78.414 33.4555 78.399 33.7405 78.365C34.6065 78.261 35.4485 78.01 36.2385 77.643C35.5685 79.517 35.3175 81.323 35.4945 83.019C35.7305 85.248 36.7525 87.253 38.2985 88.526C39.4605 89.487 40.9205 89.998 42.3415 89.998C43.0215 89.998 43.6945 89.882 44.3195 89.64C46.6305 88.749 48.2195 86.187 48.1825 83.413C48.1485 81.117 47.0836 78.714 45.1796 76.638C45.9446 76.108 46.4625 75.239 46.5635 74.317C46.8085 74.363 47.0565 74.394 47.3075 74.409C47.4085 74.415 47.5126 74.418 47.6166 74.418C50.3906 74.418 53.1145 72.263 53.9105 69.382C54.5165 67.193 54.0946 64.738 52.8176 62.641C54.1646 61.652 54.7585 59.797 54.2565 58.208C55.6035 57.954 56.8865 57.36 57.9235 56.448C59.8585 54.743 60.8535 52.034 60.5685 49.434C61.0555 49.584 61.5575 49.657 62.0655 49.657C63.7155 49.657 65.3875 48.907 66.5015 47.575C67.7715 46.057 68.2555 43.926 67.8275 41.884C68.2895 41.988 68.8405 41.964 69.1105 41.795L69.2355 41.712C69.4835 41.556 69.7165 41.406 69.9095 41.452C69.9925 41.47 70.0805 41.525 70.1755 41.587C70.3255 41.682 70.4965 41.789 70.7145 41.817C71.0485 41.857 71.3115 41.698 71.5445 41.557C71.6665 41.484 71.7835 41.413 71.8905 41.386C72.4785 41.23 72.9615 42.2 73.0965 42.503C73.1365 42.592 73.2155 42.656 73.3135 42.678C73.3345 42.681 73.3535 42.684 73.3745 42.684C73.4515 42.684 73.5245 42.656 73.5825 42.604C74.5895 41.679 76.1385 41.346 77.4365 41.771C77.5715 41.814 77.7185 41.762 77.7915 41.639C77.8685 41.52 77.8495 41.364 77.7485 41.263C77.1275 40.638 76.6645 39.858 76.4165 39.01C76.3585 38.814 76.3095 38.594 76.3765 38.431C76.3975 38.376 76.4595 38.324 76.5205 38.305C76.5385 38.299 76.5605 38.299 76.5695 38.305C76.6885 38.385 76.8485 38.372 76.9525 38.274C77.0565 38.176 77.0785 38.02 77.0075 37.894C76.7595 37.478 76.5725 37.129 76.5855 36.767C76.5945 36.586 76.6925 36.39 76.8335 36.28C76.8945 36.231 76.9925 36.176 77.1025 36.197C77.2375 36.221 77.3715 36.154 77.4335 36.032C77.4945 35.913 77.4705 35.766 77.3695 35.671C77.0025 35.331 76.6195 34.979 76.4025 34.544C76.1825 34.112 76.1755 33.635 76.3875 33.326C76.4115 33.292 76.4365 33.256 76.4645 33.222C76.5565 33.106 76.6665 32.959 76.7095 32.766C76.7955 32.377 76.5625 32.08 76.3785 31.845C76.2895 31.735 76.2075 31.631 76.1675 31.53C76.0485 31.251 76.2075 30.918 76.3905 30.535C76.5925 30.119 76.8195 29.647 76.6905 29.142C76.6265 28.897 76.4915 28.698 76.3695 28.521C76.2835 28.395 76.2015 28.279 76.1555 28.16C76.1035 28.022 76.1865 27.832 76.2355 27.811C76.3515 27.848 76.4745 27.814 76.5535 27.725C76.6335 27.633 76.6515 27.508 76.6025 27.397L75.6015 25.153C75.5065 24.939 75.3875 24.672 75.1455 24.486C74.7935 24.217 74.3495 24.244 73.9885 24.266C71.4195 24.413 68.8395 23.556 66.8835 21.918C66.5955 21.676 65.6835 20.831 66.0205 20.075C66.1555 19.772 66.4615 19.582 66.6975 19.478C67.9675 18.902 69.5325 19.515 70.5975 20.029C70.8575 20.151 71.2925 20.363 71.7145 20.194C71.8305 20.148 71.9195 20.084 72.0025 20.026C72.0575 19.986 72.1125 19.949 72.1585 19.928C72.2775 19.879 72.4525 19.907 72.6425 19.934C72.9425 19.977 73.3155 20.032 73.6165 19.769C73.7725 19.631 73.8465 19.454 73.9045 19.313C73.9385 19.233 73.9685 19.157 74.0055 19.108C74.1835 18.869 74.6545 18.964 75.0035 19.114L75.0525 19.135C75.5365 19.346 76.1365 19.606 76.6875 19.303C76.9045 19.181 77.0545 18.994 77.1835 18.832L77.2505 18.749C77.7895 18.088 78.5825 17.644 79.4245 17.531C79.5405 17.513 79.6355 17.436 79.6725 17.326C79.7125 17.216 79.6815 17.093 79.6025 17.011C79.2765 16.687 79.0075 16.39 78.9525 16.048ZM54.4675 16.219C55.1375 16.442 55.8146 16.764 56.4486 17.168C56.4916 17.232 56.5585 17.275 56.6385 17.29C58.5305 18.56 60.0096 20.56 59.9046 22.81C57.8136 23.551 56.1606 25.299 55.7256 27.295C55.4956 27.136 55.2636 26.986 55.0186 26.851C54.9756 26.827 54.9295 26.805 54.8865 26.781C54.8835 26.747 54.8805 26.714 54.8685 26.68C53.5525 23.38 51.3636 20.493 48.5406 18.335C48.4086 18.234 48.2745 18.133 48.1395 18.035C48.1215 18.02 48.0995 18.004 48.0785 17.986C49.3855 15.989 51.7605 15.325 54.4675 16.219ZM59.8065 34.364C59.6475 31.802 58.2885 29.313 56.2435 27.681C56.2645 27.647 56.2835 27.608 56.2895 27.568C56.6695 25.514 58.5055 23.717 60.7595 23.19C62.7835 22.722 65.1315 23.187 67.1975 24.473C68.5535 25.315 69.6255 26.396 70.2985 27.593C71.0485 28.931 71.3085 30.468 71.0175 31.818C70.5645 33.909 68.6935 35.733 66.3645 36.358C64.3895 36.885 62.0636 36.634 59.7826 35.651C59.8216 35.221 59.8335 34.792 59.8065 34.364ZM33.5095 41.87C33.2125 41.053 32.6155 40.119 31.4465 39.51C31.8165 39.636 32.1996 39.74 32.5886 39.807C33.0146 39.88 33.4425 39.914 33.8775 39.914C36.0485 39.914 38.2616 39.014 39.8806 37.413C40.1806 37.119 40.4566 36.798 40.7136 36.461C41.9966 37.943 42.7095 39.945 42.6425 41.895C42.5725 43.946 41.6325 45.991 40.1225 47.387C38.8765 46.818 37.4075 46.83 35.7295 47.433C34.4835 47.883 33.3535 48.59 32.3925 49.481L32.0525 49.31C33.4905 47.221 34.3605 44.194 33.5095 41.87ZM40.4465 23.223C40.7985 22.268 41.3526 21.377 42.0536 20.642C42.2866 20.397 42.6195 20.189 42.7945 20.311C42.8645 20.36 42.9235 20.473 42.9815 20.605C44.2185 23.308 44.9745 25.965 45.2925 28.73C44.1965 30.196 43.4705 31.874 43.2295 33.576C43.2145 33.683 43.2055 33.793 43.1955 33.901C42.8465 33.864 42.5155 33.702 42.2675 33.454C42.5925 32.438 42.7666 31.36 42.7696 30.258C42.7756 28.134 42.1205 24.84 40.4465 23.223ZM42.6075 34.391C42.0075 34.817 41.4935 35.368 41.1135 35.992C41.1015 35.98 41.0895 35.964 41.0765 35.952C41.4655 35.37 41.7896 34.743 42.0466 34.082C42.2186 34.214 42.4085 34.318 42.6075 34.391ZM43.2535 41.916C43.3205 39.993 42.6805 38.028 41.5175 36.485C41.5355 36.467 41.5545 36.445 41.5665 36.421C41.9465 35.757 42.4975 35.187 43.1405 34.771C43.1095 37.808 44.5645 40.725 46.9795 42.293C47.5395 42.654 48.1455 42.936 48.7735 43.141C46.5995 44.819 45.2716 47.332 45.1516 50.014C44.1386 50.296 43.1215 50.051 42.3475 49.337C42.3165 49.291 42.2865 49.242 42.2525 49.199C41.7875 48.556 41.2635 48.057 40.6885 47.693C42.2245 46.193 43.1765 44.059 43.2535 41.916ZM47.3125 41.778C44.7775 40.134 43.3785 36.874 43.8345 33.662C44.1745 31.259 45.5425 28.899 47.5875 27.187C48.3715 26.529 49.4245 26.25 50.5445 26.25C51.9645 26.25 53.4925 26.697 54.7205 27.383C57.2615 28.803 59.0155 31.559 59.1935 34.4C59.3745 37.293 57.8866 40.253 55.4896 41.772C53.0496 43.315 49.6885 43.318 47.3125 41.778ZM46.4955 21.292C46.5045 21.301 46.5165 21.307 46.5235 21.316C46.5235 22.816 46.9555 24.463 47.8215 26.294C47.6015 26.416 47.3896 26.554 47.1936 26.716C46.9796 26.9 46.7715 27.089 46.5695 27.282C46.3215 25.561 45.8316 24 45.3176 22.356C45.0546 21.52 44.7816 20.654 44.5466 19.769C44.5376 19.738 44.5315 19.708 44.5225 19.677C45.3195 20.04 46.0115 20.6 46.4955 21.292ZM44.4535 18.989C44.4685 18.885 44.4995 18.79 44.5575 18.714C44.6865 18.552 44.9435 18.46 45.2405 18.478C45.7305 18.502 46.1895 18.735 46.7315 19.078C46.7715 19.102 46.8115 19.13 46.8505 19.158C46.7185 19.568 46.6305 19.991 46.5785 20.425C46.0025 19.798 45.2705 19.299 44.4535 18.989ZM47.3835 19.519C49.7255 21.166 51.6696 23.431 52.9366 25.997C51.3936 25.559 49.7285 25.498 48.3715 26.031C47.1785 23.505 46.8535 21.371 47.3835 19.519ZM38.0915 0.62104C38.1225 0.61204 38.1556 0.60904 38.1926 0.60904C38.3056 0.60904 38.4286 0.64904 38.4986 0.71604C38.5476 0.75904 38.5415 0.78304 38.5385 0.79904C38.5355 0.82704 38.5075 0.88804 38.3855 0.98304C38.1165 1.18804 37.7645 1.28904 37.4245 1.26204C37.5565 0.96104 37.7825 0.70404 38.0915 0.62104ZM42.3046 18.197C42.3936 18.102 42.4855 18.01 42.5765 17.915C42.8275 17.658 43.0845 17.398 43.3055 17.11L43.5536 17.235C43.5746 17.247 43.5996 17.25 43.6236 17.25C43.6786 17.25 43.7335 17.219 43.7585 17.167C43.7985 17.091 43.7675 16.999 43.6915 16.962L43.4865 16.858C43.5295 16.794 43.5695 16.729 43.6085 16.662C43.7435 16.766 43.8905 16.855 44.0495 16.916C44.0675 16.922 44.0865 16.925 44.1045 16.925C44.1655 16.925 44.2236 16.888 44.2486 16.827C44.2766 16.747 44.2365 16.659 44.1565 16.628C44.0065 16.573 43.8685 16.487 43.7465 16.386C43.7645 16.343 43.7835 16.3 43.8015 16.257C43.9975 15.73 44.0375 15.106 43.9175 14.399C43.6145 12.623 42.5395 11.142 41.5025 9.70904C41.3645 9.51904 41.2276 9.32904 41.0896 9.14004C40.3246 8.06504 39.6205 6.94204 38.9715 5.78804C39.1035 5.73604 39.2195 5.64404 39.2865 5.51604C39.3265 5.43904 39.2955 5.34804 39.2225 5.30804C39.1465 5.26804 39.0545 5.29904 39.0145 5.37204C38.9775 5.44504 38.9016 5.50104 38.8186 5.51904C38.7546 5.40004 38.6835 5.28304 38.6195 5.16404L38.9935 4.94404C39.0635 4.90104 39.0885 4.80604 39.0455 4.73304C39.0025 4.66004 38.9075 4.63504 38.8375 4.68104L38.4765 4.89504C38.2465 4.45704 38.0205 4.01904 37.8095 3.57604C37.5365 3.00304 37.2925 2.44304 37.2985 1.86504C37.7425 1.92004 38.2015 1.81904 38.5875 1.58604C38.6365 2.65804 38.8935 3.68604 39.2675 4.64704C39.9535 6.40404 41.0275 7.93804 41.9335 9.10404C42.0555 9.26304 42.1815 9.42204 42.3065 9.58204C43.3475 10.901 44.4215 12.267 44.7185 13.874C44.7395 13.981 44.7585 14.097 44.7795 14.22C44.9385 15.151 45.1405 16.299 45.9035 16.792C46.4085 17.502 47.1035 18.023 47.7775 18.525C47.9095 18.623 48.0405 18.721 48.1695 18.822C50.7595 20.8 52.7956 23.411 54.0876 26.396C53.9616 26.341 53.8305 26.295 53.7015 26.246C53.7015 26.2 53.6955 26.151 53.6735 26.108C52.2565 23.05 49.9046 20.371 47.0606 18.562C46.5216 18.219 45.9305 17.901 45.2725 17.867C44.7675 17.846 44.3296 18.014 44.0756 18.342C43.7206 18.801 43.8156 19.401 43.9566 19.928C44.1956 20.828 44.4676 21.701 44.7346 22.542C45.2886 24.312 45.8126 25.986 46.0266 27.844C45.9566 27.921 45.8915 27.994 45.8275 28.071C45.4635 25.457 44.7166 22.922 43.5406 20.35C43.4706 20.194 43.3595 19.958 43.1455 19.808C42.7225 19.517 42.1355 19.673 41.6115 20.221C40.9015 20.965 40.3315 21.856 39.9525 22.814C39.8885 22.771 39.8235 22.728 39.7565 22.692C39.7595 22.68 39.7685 22.674 39.7715 22.661C40.2345 20.995 41.1136 19.452 42.3046 18.197ZM38.1435 22.158C38.5695 21.16 39.3586 20.327 40.3326 19.807C39.8456 20.63 39.4636 21.512 39.1996 22.431C39.1236 22.407 39.0465 22.382 38.9695 22.361C38.6905 22.288 38.4126 22.229 38.1306 22.177C38.1346 22.17 38.1405 22.167 38.1435 22.158ZM38.8145 22.951C41.1315 23.563 42.1636 27.592 42.1576 30.259C42.1516 32.243 41.5635 34.15 40.5135 35.693C40.4925 35.705 40.4705 35.717 40.4525 35.733C40.4005 35.782 40.3756 35.843 40.3666 35.904C40.0876 36.287 39.7815 36.648 39.4485 36.979C37.6455 38.761 35.0556 39.612 32.6926 39.205C29.5886 38.669 26.9375 35.813 26.5235 32.565C26.1225 29.403 27.7235 26.044 30.5035 24.201C32.8295 22.66 35.9365 22.195 38.8145 22.951ZM32.5476 17.349C34.6626 18.071 36.3465 19.921 36.8335 22.015C34.4485 21.853 32.0635 22.434 30.1625 23.69C27.5515 25.423 25.9165 28.414 25.8555 31.414C24.5605 31.028 23.4215 30.024 22.7755 28.677C22.3375 27.759 22.1695 26.813 22.1385 25.958C22.1965 25.878 22.2185 25.774 22.1815 25.673C22.1695 25.645 22.1505 25.627 22.1355 25.603C22.1385 25.083 22.1935 24.605 22.2605 24.198C22.6675 21.798 23.9845 19.673 25.8725 18.366C27.8365 17.003 30.3926 16.614 32.5476 17.349ZM21.9035 38.827C21.6865 39.032 21.5575 39.28 21.4355 39.519C21.3925 39.602 21.3495 39.687 21.3035 39.767C20.9945 40.297 20.4645 40.692 19.8705 40.848C19.8335 40.701 19.7515 40.563 19.6315 40.441C19.2795 40.083 18.6335 39.917 18.0915 40.049C17.9045 40.095 17.7215 40.156 17.5435 40.217C17.1975 40.333 16.8635 40.447 16.5695 40.416L16.9985 37.33C17.0295 37.11 17.0625 36.862 17.1825 36.706C17.2685 36.593 17.4095 36.507 17.5595 36.412L17.6725 36.342C17.9575 36.161 18.2145 35.941 18.4405 35.693C18.9705 35.111 19.3255 34.374 19.4535 33.599C19.5295 33.149 19.5265 32.687 19.4415 32.237C19.3955 32.004 19.3165 31.713 19.0895 31.499C18.8785 31.3 18.5995 31.217 18.2845 31.248C17.9875 31.282 17.6565 31.416 17.3175 31.652C16.2735 32.378 15.3885 33.345 14.7585 34.447C14.6485 34.64 14.5415 34.83 14.4065 34.873C14.2965 34.91 14.1495 34.858 13.9775 34.8C13.7905 34.736 13.5765 34.662 13.3375 34.684C12.9795 34.715 12.7255 34.929 12.5015 35.122C12.3885 35.217 12.2845 35.309 12.1735 35.367C11.6895 35.63 11.0315 35.327 10.4525 34.997L7.78655 33.482C7.50155 33.32 7.17455 33.148 6.82855 33.017C6.36355 32.842 5.87055 32.738 5.40455 32.827C5.40155 32.512 5.28555 32.193 5.10755 31.955C4.80155 31.548 4.35155 31.309 3.91055 31.116C2.98255 30.706 2.01555 30.409 1.02055 30.231C1.43955 29.836 1.80455 29.38 2.09155 28.884C2.13155 28.814 2.17455 28.74 2.21355 28.667C2.37555 28.37 2.52855 28.091 2.75855 27.914C2.90855 27.798 3.10155 27.706 3.30955 27.608C3.76855 27.394 4.28955 27.149 4.37155 26.555C4.38955 26.414 4.37755 26.283 4.36555 26.166C4.35355 26.05 4.34455 25.943 4.37155 25.878C4.42355 25.768 4.63755 25.7 4.80955 25.648C6.08955 25.247 6.88555 24.463 6.93755 23.548C6.94355 23.456 6.94055 23.364 6.93755 23.273C6.93455 23.092 6.93155 22.936 6.99255 22.835C7.07255 22.703 7.28955 22.636 7.49155 22.587L7.71155 22.535C8.21355 22.419 8.73055 22.296 9.17155 21.972C9.61255 21.644 9.92455 21.047 9.82055 20.499C10.3895 20.441 10.9935 20.566 11.5835 20.692C12.4375 20.87 13.2485 21.007 14.0265 20.762C14.8595 20.502 15.6365 19.638 15.4405 18.699C15.2205 17.652 14.0325 17.245 13.2485 16.975C12.1735 16.608 11.1335 16.124 10.1565 15.536C10.0005 15.441 9.85055 15.346 9.77355 15.227C9.70355 15.114 9.67555 14.955 9.64455 14.783C9.63555 14.725 9.62655 14.667 9.61355 14.612C9.48455 13.984 9.13255 13.406 8.64355 12.99C9.06555 12.861 9.49755 12.699 9.88355 12.451C10.4555 12.087 10.8575 11.56 11.0005 11.003C11.4225 11.058 11.8695 10.969 12.2745 10.749C12.7885 10.467 13.1595 10.002 13.2905 9.47904L13.3155 9.38104C13.3365 9.28304 13.3585 9.19104 13.3955 9.14504C13.4875 9.03504 13.7785 9.09304 14.0105 9.13604L14.0745 9.14804C15.1065 9.34404 16.1995 8.99504 16.9305 8.24204L17.0255 8.14104C17.1355 8.02204 17.2425 7.90804 17.3565 7.85904C17.5525 7.77004 17.8185 7.84704 18.1005 7.92604C18.1735 7.94404 18.2445 7.96604 18.3145 7.98404C19.1935 8.20104 20.1665 8.02704 20.9195 7.52504C21.5415 8.04504 22.2605 8.53504 23.0905 8.43704C23.2555 8.41904 23.4055 8.37904 23.5525 8.33904C23.6845 8.30204 23.8095 8.26904 23.9285 8.25604C24.6635 8.17304 25.3125 8.77604 25.9395 9.36104L26.0095 9.42504C26.8635 10.218 27.6995 10.555 28.4065 10.402C28.7585 12.582 29.3765 14.544 30.2865 16.378C28.6215 16.378 26.9285 16.886 25.5195 17.863C25.1615 18.111 24.8245 18.386 24.5095 18.687C24.3965 18.549 24.2825 18.414 24.1635 18.283C24.3075 18.047 24.4455 17.812 24.5615 17.576C25.3205 16.021 25.5385 14.236 25.1765 12.543C25.1585 12.46 25.0785 12.411 24.9925 12.427C24.9095 12.445 24.8575 12.525 24.8765 12.608C25.2255 14.234 25.0145 15.948 24.2855 17.442C24.1845 17.644 24.0715 17.846 23.9485 18.048C23.0975 17.127 22.1425 16.297 21.1105 15.571C21.5325 14.405 21.5395 13.085 21.1105 11.919C21.0795 11.839 20.9945 11.8 20.9145 11.827C20.8345 11.858 20.7955 11.946 20.8225 12.026C21.2175 13.098 21.2205 14.307 20.8505 15.39C19.9015 14.75 18.8945 14.202 17.8475 13.755C17.9205 12.83 17.6945 11.894 17.2015 11.11C17.1555 11.037 17.0605 11.015 16.9905 11.061C16.9205 11.107 16.8985 11.202 16.9415 11.272C17.3825 11.97 17.5935 12.803 17.5475 13.626C16.5705 13.231 15.5665 12.919 14.5445 12.711C14.3795 12.677 14.2165 12.781 14.1835 12.95C14.1495 13.115 14.2565 13.278 14.4225 13.311C14.7745 13.381 15.1235 13.47 15.4695 13.568C14.9425 14.058 14.2025 14.315 13.4855 14.229C13.3995 14.223 13.3235 14.281 13.3145 14.364C13.3055 14.45 13.3665 14.523 13.4495 14.535C13.5505 14.544 13.6515 14.55 13.7555 14.55C14.5235 14.55 15.2865 14.219 15.8125 13.659C16.9055 13.99 17.9675 14.434 18.9815 14.975C18.4645 15.808 17.6525 16.444 16.7165 16.744C16.6365 16.769 16.5945 16.854 16.6185 16.934C16.6395 17.001 16.6985 17.041 16.7655 17.041C16.7805 17.041 16.7965 17.041 16.8115 17.035C17.8215 16.714 18.6945 16.022 19.2515 15.119C20.3225 15.719 21.3335 16.429 22.2515 17.237C21.6665 18.027 20.7725 18.575 19.7965 18.719C19.7135 18.731 19.6555 18.808 19.6675 18.89C19.6795 18.967 19.7445 19.022 19.8175 19.022C19.8265 19.022 19.8325 19.022 19.8415 19.022C20.8855 18.866 21.8435 18.287 22.4775 17.445C23.0505 17.968 23.5855 18.526 24.0785 19.12C22.8325 20.464 21.9755 22.2 21.6535 24.095C21.5675 24.603 21.5275 25.105 21.5215 25.595C21.3925 25.641 21.2645 25.687 21.1385 25.733C20.5415 24.545 19.6475 23.526 18.5425 22.782C18.4725 22.733 18.3775 22.754 18.3315 22.825C18.2825 22.895 18.3005 22.99 18.3715 23.036C19.4215 23.743 20.2755 24.711 20.8485 25.84C19.5475 26.311 18.2315 26.731 16.8965 27.089C16.5815 26.302 16.0485 25.54 15.3075 24.817C14.6035 24.131 13.7955 23.553 13.0145 22.996C12.9475 22.947 12.8495 22.962 12.8005 23.03C12.7565 23.098 12.7715 23.193 12.8415 23.242C13.6125 23.793 14.4085 24.366 15.0975 25.036C15.7985 25.716 16.3005 26.432 16.6035 27.164C15.1095 27.553 13.5975 27.868 12.0725 28.113C11.6805 27.461 11.1905 26.876 10.6155 26.377C10.5515 26.322 10.4535 26.331 10.3985 26.395C10.3435 26.459 10.3525 26.554 10.4135 26.609C10.9375 27.059 11.3805 27.586 11.7455 28.167C10.5425 28.351 9.33355 28.492 8.11455 28.586C7.94655 28.598 7.82055 28.745 7.83255 28.914C7.84455 29.073 7.97955 29.196 8.13855 29.196C8.14455 29.196 8.15355 29.196 8.16255 29.196C8.52055 29.168 8.87555 29.129 9.23355 29.095C8.96155 30.09 8.33955 31.002 7.50955 31.611C7.43955 31.663 7.42355 31.758 7.47555 31.825C7.50655 31.868 7.55255 31.889 7.59755 31.889C7.62855 31.889 7.66155 31.877 7.68955 31.858C8.60455 31.184 9.28455 30.165 9.56055 29.063C11.0295 28.907 12.4875 28.683 13.9325 28.399C13.9565 29.547 13.5525 30.695 12.8025 31.568C12.7475 31.632 12.7565 31.73 12.8205 31.785C12.8485 31.809 12.8845 31.822 12.9185 31.822C12.9615 31.822 13.0045 31.804 13.0345 31.767C13.8455 30.824 14.2775 29.578 14.2375 28.335C15.8175 28.011 17.3845 27.613 18.9275 27.132C19.0595 27.833 18.9515 28.589 18.6215 29.22C18.5815 29.293 18.6095 29.388 18.6855 29.425C18.7065 29.437 18.7315 29.443 18.7555 29.443C18.8105 29.443 18.8625 29.412 18.8905 29.36C19.2635 28.65 19.3805 27.823 19.2215 27.036C19.9995 26.788 20.7735 26.522 21.5425 26.234C21.6065 27.204 21.8305 28.117 22.2225 28.937C22.5595 29.638 23.0155 30.256 23.5545 30.765C22.6515 31.573 22.0235 32.629 21.7325 33.814C21.4665 33.704 21.1755 33.658 20.8875 33.676C20.8265 33.679 20.7745 33.719 20.7555 33.771C20.7465 33.792 20.7405 33.817 20.7435 33.841C20.7495 33.924 20.8205 33.991 20.9085 33.982C21.1655 33.964 21.4285 34.016 21.6645 34.12C21.6005 34.451 21.5635 34.787 21.5485 35.13C21.5485 35.133 21.5485 35.133 21.5485 35.133C21.3065 35.574 21.0285 35.99 20.7245 36.385C20.7185 36.382 20.7155 36.379 20.7095 36.376C20.1925 36.198 19.6505 36.107 19.0995 36.107C19.0165 36.107 18.9465 36.174 18.9465 36.26C18.9465 36.343 19.0165 36.413 19.0995 36.413C19.5835 36.413 20.0605 36.493 20.5195 36.639C20.2375 36.985 19.9375 37.316 19.6105 37.622C19.4885 37.738 19.4785 37.931 19.5955 38.057C19.6565 38.121 19.7395 38.152 19.8185 38.152C19.8955 38.152 19.9685 38.124 20.0295 38.069C20.1915 37.916 20.3475 37.754 20.5005 37.588C20.6935 37.943 20.8065 38.347 20.8185 38.748C20.8185 38.769 20.8245 38.788 20.8305 38.806C20.8545 38.858 20.9105 38.895 20.9715 38.895H20.9745C21.0605 38.895 21.1275 38.825 21.1245 38.739C21.1095 38.249 20.9685 37.772 20.7175 37.352C21.0355 36.994 21.3295 36.614 21.5995 36.216C21.7095 37.043 21.9855 37.842 22.4015 38.564C22.2215 38.613 22.0445 38.699 21.9035 38.827ZM22.1635 35.625C22.0965 33.865 22.7755 32.254 24.0305 31.165C24.5875 31.584 25.2095 31.891 25.8645 32.059C25.8765 32.252 25.8925 32.448 25.9165 32.641C26.2775 35.488 28.1425 37.977 30.6155 39.168C30.1715 39.027 29.6695 38.926 29.0905 38.88C27.6115 38.767 26.0415 39.195 24.5745 40.083C23.1495 39.069 22.2275 37.373 22.1635 35.625ZM30.6345 50.069C29.6395 51.055 28.4455 51.786 27.1875 52.187C26.2415 52.487 24.4135 52.864 22.8095 52.006C21.2055 51.152 20.2195 49.128 20.4095 47.08C20.5745 45.295 21.5485 43.474 23.1525 41.943C24.8145 40.357 26.7805 39.476 28.6135 39.476C28.7575 39.476 28.9015 39.479 29.0455 39.491C31.0265 39.644 32.3705 40.538 32.9335 42.078C33.7815 44.393 32.7495 47.978 30.6345 50.069ZM35.9366 48.008C36.7356 47.723 37.4735 47.579 38.1525 47.579C39.6035 47.579 40.7946 48.234 41.7556 49.557C42.7106 50.867 43.2215 52.511 43.2215 54.131C43.2215 54.755 43.1445 55.377 42.9885 55.974C42.1955 59.008 39.4465 61.595 36.1465 62.409C35.0625 62.678 33.0205 62.957 31.5025 61.818C30.1065 60.774 29.7365 58.943 29.6385 57.945C29.2325 53.718 31.9386 49.447 35.9366 48.008ZM26.4405 61.175C26.3575 59.173 27.3985 57.14 29.0515 56.004C28.9745 56.665 28.9655 57.336 29.0305 58.006C29.1375 59.102 29.5505 61.122 31.1365 62.307C32.1105 63.039 33.2586 63.259 34.2836 63.259C34.4856 63.259 34.6815 63.25 34.8715 63.238C35.4195 63.192 35.9125 63.097 36.2955 63.002C37.4805 62.711 38.5885 62.212 39.5715 61.563C39.5105 62.671 38.9565 63.752 38.0835 64.441C37.1745 63.89 36.0996 63.624 34.9146 63.67C34.8286 63.673 34.7435 63.679 34.6545 63.685C32.8485 63.823 31.0695 64.793 29.8055 66.309C29.7935 66.3 29.7845 66.288 29.7715 66.281C27.8675 65.348 26.5265 63.297 26.4405 61.175ZM33.6625 77.753C31.9755 77.955 30.4205 77.496 29.4955 76.525C28.4055 75.383 28.2315 73.647 28.2775 72.395C28.3505 70.332 28.9475 68.483 30.0015 67.05C31.1675 65.461 32.9256 64.43 34.7006 64.295C36.6686 64.142 38.3126 64.932 39.3386 66.514C40.6576 68.556 40.7255 71.553 39.4975 73.803C38.3275 75.949 36.0925 77.465 33.6625 77.753ZM47.5695 83.422C47.6035 85.945 46.1765 88.268 44.0975 89.067C42.3675 89.734 40.2405 89.333 38.6815 88.051C37.2585 86.879 36.3155 85.02 36.0975 82.951C35.9075 81.154 36.2325 79.219 37.0555 77.196C37.9435 76.654 38.7305 75.95 39.3605 75.123C39.4065 75.126 39.4526 75.12 39.4986 75.099C40.3066 74.735 41.3295 74.765 42.2995 75.185C43.0925 75.525 43.8486 76.103 44.6786 76.997C46.5136 78.974 47.5395 81.255 47.5695 83.422ZM44.7475 76.188C44.0005 75.447 43.2935 74.942 42.5435 74.621C41.6585 74.238 40.7285 74.143 39.8985 74.33C39.9445 74.25 39.9935 74.174 40.0365 74.094C41.0165 72.294 41.2336 70.05 40.7006 68.106C40.5106 67.414 40.2296 66.762 39.8526 66.18C39.4976 65.635 39.0775 65.173 38.6035 64.799C39.4755 64.046 40.0485 62.95 40.1675 61.802C40.4245 62.059 40.7186 62.273 41.0676 62.454C41.0646 62.46 41.0585 62.469 41.0555 62.475C40.4835 63.801 40.3115 65.411 40.5625 67.131C40.6115 67.459 40.6695 67.78 40.7465 68.092C41.0985 69.592 41.7415 70.921 42.6385 71.971C43.5505 73.039 44.7175 73.802 45.9605 74.169C45.8985 74.982 45.4365 75.753 44.7475 76.188ZM53.3225 69.22C52.5695 71.938 49.9425 73.95 47.3405 73.8C45.7765 73.708 44.2305 72.897 43.1035 71.574C42.0965 70.392 41.4255 68.825 41.1685 67.046C40.9325 65.436 41.0885 63.942 41.6185 62.72C42.2185 61.333 43.9726 59.245 45.4636 58.997C45.6836 58.96 45.9046 58.942 46.1306 58.942C48.0346 58.942 50.0305 60.203 51.2645 61.575C53.2025 63.731 54.0075 66.732 53.3225 69.22ZM52.4805 62.127C52.2505 61.796 51.9965 61.475 51.7215 61.169C50.2305 59.51 47.6835 58.01 45.3635 58.392C43.7895 58.655 42.1585 60.446 41.3405 61.906C40.9085 61.679 40.5875 61.407 40.3085 61.024C41.9035 59.75 43.0826 58.042 43.5816 56.126C44.0656 54.286 43.8385 52.229 43.0095 50.478C43.4255 50.653 43.8726 50.741 44.3256 50.741C44.5976 50.741 44.8735 50.71 45.1495 50.646C45.2445 53.628 46.9806 56.408 49.5606 57.647C50.5526 58.125 51.6515 58.354 52.7535 58.354C53.0505 58.354 53.3445 58.333 53.6415 58.299C54.1055 59.635 53.6105 61.276 52.4805 62.127ZM57.5196 55.989C55.4406 57.82 52.2755 58.273 49.8265 57.097C47.3835 55.924 45.7085 53.12 45.7515 50.276C45.7945 47.536 47.2026 44.958 49.5266 43.351C50.1296 43.486 50.7475 43.559 51.3695 43.559C52.4535 43.559 53.5365 43.348 54.5505 42.935C57.1255 43.719 59.0755 45.782 59.7735 48.476C60.4705 51.168 59.5646 54.186 57.5196 55.989ZM66.0335 47.182C64.7175 48.759 62.4305 49.438 60.5965 48.805C60.5535 48.793 60.5105 48.79 60.4675 48.793C60.4365 48.634 60.4066 48.478 60.3666 48.322C59.6686 45.64 57.8165 43.537 55.3425 42.567C55.5015 42.481 55.6605 42.389 55.8165 42.291C57.8645 40.993 59.2946 38.718 59.6986 36.282C60.9656 36.809 62.2455 37.121 63.4825 37.21C65.3595 38.217 66.5015 39.558 67.0795 41.429C67.6955 43.425 67.2855 45.685 66.0335 47.182ZM76.7725 18.362L76.7025 18.451C76.5985 18.583 76.4975 18.705 76.3845 18.769C76.1025 18.925 75.6895 18.748 75.2915 18.576L75.2455 18.555C74.4925 18.227 73.8435 18.298 73.5125 18.742C73.4295 18.855 73.3775 18.975 73.3345 19.082C73.2945 19.177 73.2575 19.269 73.2095 19.312C73.1265 19.382 72.9735 19.367 72.7285 19.33C72.4775 19.293 72.1955 19.253 71.9205 19.367C71.8105 19.413 71.7245 19.474 71.6445 19.529C71.5865 19.572 71.5315 19.609 71.4855 19.627C71.3265 19.691 71.0905 19.587 70.8615 19.477C69.6825 18.914 67.9475 18.24 66.4405 18.923C66.1095 19.073 65.6695 19.352 65.4575 19.829C65.1145 20.603 65.5005 21.559 66.4895 22.388C66.9705 22.789 67.4845 23.15 68.0265 23.46C69.8295 24.492 71.9265 25 74.0025 24.88C74.3085 24.862 74.6025 24.843 74.7735 24.975C74.8895 25.067 74.9725 25.244 75.0425 25.404L75.8875 27.308C75.8475 27.336 75.8075 27.366 75.7745 27.406C75.5415 27.651 75.4625 28.061 75.5815 28.38C75.6545 28.567 75.7625 28.723 75.8635 28.873C75.9645 29.02 76.0595 29.158 76.0965 29.299C76.1695 29.587 76.0105 29.921 75.8395 30.273C75.6225 30.726 75.3745 31.24 75.6035 31.773C75.6585 31.905 75.7385 32.021 75.8175 32.125C75.8425 32.162 75.8695 32.195 75.8945 32.226C76.0445 32.416 76.1335 32.541 76.1115 32.642C76.0995 32.7 76.0415 32.774 75.9795 32.853C75.9455 32.896 75.9095 32.942 75.8785 32.988C75.5415 33.484 75.5325 34.188 75.8545 34.825C76.0325 35.177 76.2835 35.474 76.5465 35.737C76.5155 35.758 76.4825 35.78 76.4515 35.804C76.1725 36.027 75.9895 36.389 75.9765 36.747C75.9615 37.12 76.0805 37.463 76.2305 37.766C76.0465 37.852 75.8905 38.011 75.8145 38.198C75.6705 38.538 75.7475 38.905 75.8295 39.187C76.0195 39.836 76.3225 40.451 76.7205 40.999C75.5785 40.88 74.3965 41.198 73.4755 41.896C72.9945 41.024 72.3705 40.626 71.7305 40.797C71.5375 40.849 71.3725 40.947 71.2255 41.036C71.0605 41.14 70.9165 41.226 70.7905 41.214C70.7075 41.202 70.6125 41.144 70.5025 41.073C70.3735 40.993 70.2305 40.898 70.0495 40.859C69.6025 40.755 69.2135 41.003 68.9045 41.202L68.7855 41.279C68.5895 41.401 67.8145 41.322 67.6375 41.169C67.1075 39.504 66.1555 38.227 64.6895 37.229C65.3235 37.198 65.9355 37.107 66.5235 36.95C66.7075 36.901 66.8875 36.843 67.0685 36.779C66.9335 37.14 66.8635 37.526 66.8665 37.912C66.8665 37.998 66.9335 38.065 67.0195 38.065C67.1055 38.062 67.1725 37.995 67.1725 37.909C67.1665 37.465 67.2735 37.024 67.4725 36.626C68.4525 36.216 69.3245 35.604 70.0225 34.863C70.1975 35.031 70.3715 35.2 70.5455 35.368C69.8355 36.577 69.5505 38.053 69.7705 39.437C69.7825 39.513 69.8475 39.569 69.9235 39.569C69.9295 39.569 69.9385 39.566 69.9475 39.566C70.0305 39.554 70.0855 39.474 70.0735 39.392C69.8685 38.1 70.1255 36.726 70.7715 35.59C71.4025 36.202 72.0265 36.821 72.6325 37.445C72.6935 37.506 72.7735 37.537 72.8525 37.537C72.9295 37.537 73.0055 37.509 73.0635 37.451C73.1855 37.335 73.1885 37.139 73.0725 37.019C72.2155 36.134 71.3245 35.256 70.4245 34.405C70.7555 33.983 71.0305 33.529 71.2445 33.052C72.1325 32.525 73.2255 32.317 74.2385 32.501C74.3215 32.513 74.4005 32.458 74.4165 32.375C74.4195 32.366 74.4195 32.357 74.4195 32.347C74.4195 32.277 74.3645 32.209 74.2905 32.197C73.3135 32.022 72.3035 32.176 71.4225 32.61C71.4955 32.393 71.5635 32.172 71.6125 31.949C71.8845 30.694 71.7195 29.292 71.1745 28.006C71.5935 27.611 72.1785 27.4 72.7575 27.433C72.8435 27.439 72.9135 27.375 72.9195 27.289C72.9255 27.206 72.8615 27.133 72.7755 27.127C72.1475 27.087 71.5145 27.308 71.0395 27.715C70.9725 27.574 70.9045 27.433 70.8285 27.299C70.1065 26.007 68.9615 24.853 67.5195 23.956C65.3125 22.588 62.7985 22.092 60.6195 22.6C60.5855 22.606 60.5555 22.618 60.5215 22.624C60.5305 21.277 60.0316 20.016 59.2386 18.935C59.2476 18.926 59.2596 18.923 59.2696 18.914C59.5116 18.688 59.7596 18.467 60.0166 18.256C60.5856 19.083 61.4556 19.713 62.4196 19.992C62.4316 19.995 62.4476 19.998 62.4626 19.998C62.5266 19.998 62.5885 19.955 62.6095 19.888C62.6305 19.805 62.5856 19.723 62.5026 19.698C61.6026 19.438 60.7885 18.844 60.2585 18.069C61.4925 17.095 62.8755 16.309 64.3485 15.733C64.6245 16.664 65.2205 17.499 66.0235 18.047C66.0515 18.065 66.0815 18.075 66.1095 18.075C66.1585 18.075 66.2075 18.054 66.2385 18.008C66.2845 17.938 66.2665 17.843 66.1985 17.797C65.4455 17.283 64.8885 16.502 64.6375 15.63C66.3645 14.99 68.1975 14.632 70.0315 14.592C70.1965 15.575 70.5765 16.521 71.1425 17.338C71.1705 17.381 71.2195 17.405 71.2685 17.405C71.2995 17.405 71.3265 17.396 71.3545 17.377C71.4245 17.328 71.4435 17.233 71.3945 17.166C70.8645 16.398 70.5035 15.513 70.3415 14.594C71.5445 14.594 72.7415 14.72 73.9045 14.998C74.0665 15.038 74.2355 14.937 74.2745 14.771C74.3145 14.606 74.2105 14.44 74.0475 14.401C73.2855 14.22 72.5105 14.104 71.7305 14.04C72.1285 13.054 72.8575 12.194 73.7605 11.652C73.8335 11.609 73.8585 11.514 73.8155 11.444C73.7725 11.371 73.6775 11.346 73.6045 11.389C72.6125 11.983 71.8195 12.935 71.4125 14.019C70.2095 13.942 68.9975 13.995 67.8005 14.178C67.8345 13.376 68.0455 12.58 68.4185 11.87C68.4585 11.797 68.4305 11.705 68.3545 11.665C68.2815 11.625 68.1865 11.653 68.1495 11.729C67.7425 12.497 67.5155 13.364 67.4915 14.233C66.0955 14.475 64.7276 14.885 63.4326 15.458C63.3686 14.726 63.4475 13.976 63.6775 13.275C63.7025 13.195 63.6595 13.11 63.5795 13.082C63.4965 13.058 63.4115 13.1 63.3865 13.183C63.1355 13.951 63.0495 14.781 63.1355 15.586C62.2105 16.018 61.3265 16.529 60.4995 17.12C60.3345 16.786 60.2395 16.419 60.2305 16.045C60.2275 15.959 60.1476 15.904 60.0716 15.895C59.9856 15.898 59.9215 15.968 59.9245 16.054C59.9365 16.492 60.0536 16.917 60.2526 17.303C59.7686 17.661 59.3036 18.044 58.8656 18.457C58.3326 17.836 57.7055 17.285 57.0285 16.822C57.1265 15.907 57.2795 15.004 57.4845 14.113C57.8215 14.199 58.1706 14.245 58.5196 14.245C59.0066 14.245 59.4965 14.162 59.9525 13.997C60.0325 13.969 60.0746 13.881 60.0476 13.801C60.0166 13.721 59.9316 13.682 59.8516 13.709C59.1166 13.972 58.3055 14.006 57.5495 13.816C57.7885 12.824 58.0976 11.854 58.4646 10.902C58.5936 10.923 58.7245 10.936 58.8565 10.936C59.2785 10.936 59.7045 10.82 60.0625 10.593C60.1355 10.55 60.1575 10.455 60.1115 10.382C60.0685 10.312 59.9735 10.29 59.9005 10.333C59.5115 10.578 59.0345 10.676 58.5775 10.609C58.8345 9.97204 59.1165 9.34204 59.4315 8.72304C59.5085 8.57304 59.4466 8.38604 59.2966 8.31004C59.1436 8.23304 58.9595 8.29504 58.8835 8.44504C58.6235 8.96204 58.3875 9.48604 58.1645 10.016C57.9475 9.78604 57.7575 9.52904 57.6045 9.25104C57.5765 9.19904 57.5245 9.17104 57.4695 9.17104C57.4455 9.17104 57.4205 9.17704 57.3995 9.18904C57.3225 9.23204 57.2956 9.32404 57.3386 9.39704C57.5256 9.74004 57.7615 10.049 58.0365 10.321C57.7085 11.129 57.4275 11.953 57.1915 12.788C56.7755 12.58 56.4236 12.249 56.1996 11.842C56.1596 11.765 56.0646 11.741 55.9916 11.781C55.9186 11.821 55.8905 11.916 55.9305 11.989C56.1935 12.467 56.6165 12.858 57.1095 13.088C56.9255 13.771 56.7725 14.459 56.6505 15.157C56.1085 14.891 55.6375 14.483 55.3005 13.981C55.2545 13.911 55.1596 13.892 55.0896 13.938C55.0196 13.984 55.0006 14.082 55.0466 14.149C55.4296 14.721 55.9745 15.184 56.5955 15.472C56.5435 15.8 56.4975 16.13 56.4575 16.461C55.8755 16.118 55.2665 15.843 54.6605 15.641C54.3425 15.537 54.0265 15.454 53.7175 15.39C53.7175 15.375 53.7206 15.362 53.7206 15.347C53.4666 13.786 53.4385 12.203 53.6405 10.636C54.3875 10.186 54.9476 9.43004 55.1686 8.58504C55.7106 8.67704 56.3226 8.52104 56.8366 8.15004C56.8976 8.10704 56.9555 8.06104 57.0145 8.01204C57.5595 7.54704 57.9146 6.91004 58.2266 6.34104C59.2306 5.50504 60.1335 4.55304 60.9175 3.50904C61.1685 4.20104 61.5945 4.82504 62.1515 5.30604C61.9525 5.56304 61.8885 5.93404 61.9435 6.26704C61.9675 6.42304 62.0105 6.57004 62.0505 6.71104C62.1055 6.91004 62.1606 7.09704 62.1546 7.27104C62.1456 7.52804 62.0106 7.78504 61.8666 8.05804C61.7106 8.34904 61.5485 8.65204 61.5085 9.01004C61.4595 9.47504 61.6375 9.92804 62.0135 10.283C62.4815 10.724 63.1825 10.944 63.8015 10.84C64.8455 10.669 65.6295 9.88504 66.2535 9.14104L66.4615 8.89304C66.9755 8.27204 67.5085 7.63204 68.2035 7.30404C69.0145 6.91804 70.0495 7.01604 70.7755 7.54304C70.9775 7.68704 71.1615 7.86404 71.3515 8.05104C71.5265 8.21604 71.7035 8.39104 71.9025 8.54404C72.4355 8.96004 73.0875 9.21704 73.7605 9.28204C73.7115 9.33104 73.6805 9.39504 73.6745 9.46604C73.6225 9.98004 74.1065 10.21 74.4245 10.363C74.4855 10.394 74.5505 10.424 74.6055 10.455C75.0095 10.672 75.2055 11.153 75.4165 11.664C75.4745 11.808 75.5355 11.955 75.6005 12.096C75.8545 12.644 76.3165 13.1 76.7855 13.256C76.8835 13.293 76.9815 13.311 77.0795 13.32C77.0795 13.372 77.0825 13.421 77.0885 13.473C77.1465 13.88 77.4465 14.315 77.8385 14.557C78.0065 14.661 78.1815 14.744 78.3495 14.826C78.5025 14.899 78.6495 14.97 78.7815 15.049C78.7445 15.077 78.7115 15.104 78.6805 15.138C78.4265 15.395 78.2945 15.79 78.3495 16.145C78.4075 16.497 78.5885 16.794 78.7935 17.042C78.0035 17.263 77.2895 17.728 76.7725 18.362Z" fill="currentColor"/>
<path d="M5.32689 28.7979H5.26889C5.09789 28.7979 4.96289 28.9329 4.96289 29.1039C4.96289 29.2719 5.09789 29.4099 5.26889 29.4099H5.32689C5.49789 29.4099 5.63289 29.2719 5.63289 29.1039C5.63289 28.9329 5.49789 28.7979 5.32689 28.7979Z" fill="currentColor"/>
<path d="M7.06454 28.5689C6.85654 28.5229 6.63854 28.5539 6.44954 28.6459C6.29654 28.7159 6.23254 28.8999 6.30554 29.0529C6.36054 29.1629 6.46754 29.2279 6.58454 29.2279C6.62754 29.2279 6.67354 29.2159 6.71654 29.1969C6.78354 29.1629 6.86654 29.1539 6.94254 29.1659C7.10754 29.1999 7.27054 29.0959 7.30354 28.9269C7.33754 28.7609 7.23054 28.5989 7.06454 28.5689Z" fill="currentColor"/>
<path d="M7.10454 31.9448C7.03454 31.9508 6.99154 31.9758 6.96354 32.0248C6.91154 32.0128 6.85054 32.0308 6.81354 32.0768C6.75854 32.1408 6.76754 32.2358 6.83154 32.2908C6.87454 32.3278 6.92954 32.3488 6.98754 32.3488C7.02454 32.3488 7.06354 32.3398 7.09754 32.3208C7.19254 32.2808 7.25054 32.1948 7.25354 32.1008C7.25354 32.0798 7.25054 32.0578 7.24154 32.0398C7.22154 31.9848 7.16554 31.9448 7.10454 31.9448Z" fill="currentColor"/>
<path d="M8.38152 25.0022C8.46752 25.0022 8.53452 24.9352 8.53452 24.8492V24.7912C8.53452 24.7052 8.46752 24.6382 8.38152 24.6382C8.29552 24.6382 8.22852 24.7052 8.22852 24.7912V24.8492C8.22852 24.9352 8.29552 25.0022 8.38152 25.0022Z" fill="currentColor"/>
<path d="M9.40737 25.6081L9.58837 25.6691C9.60337 25.6721 9.61937 25.6751 9.63437 25.6751C9.69837 25.6751 9.76037 25.6351 9.78137 25.5711C9.80937 25.4911 9.76637 25.4061 9.68337 25.3781L9.50537 25.3171C9.42237 25.2891 9.33737 25.3321 9.30937 25.4151C9.28537 25.4951 9.32837 25.5811 9.40737 25.6081Z" fill="currentColor"/>
<path d="M11.3499 32.8699L11.1689 32.9889C11.0989 33.0349 11.0799 33.1299 11.1289 33.1999C11.1569 33.2459 11.2059 33.2669 11.2539 33.2669C11.2849 33.2669 11.3149 33.2609 11.3399 33.2429L11.5209 33.1239C11.5909 33.0779 11.6099 32.9829 11.5639 32.9129C11.5159 32.8419 11.4209 32.8209 11.3499 32.8699Z" fill="currentColor"/>
<path d="M11.8977 22.6049C11.9287 22.5959 11.9677 22.6049 11.9927 22.6259C12.0207 22.6539 12.0567 22.6659 12.0937 22.6659C12.1367 22.6659 12.1767 22.6509 12.2067 22.6169C12.2647 22.5559 12.2617 22.4579 12.1977 22.3999C12.0967 22.3049 11.9467 22.2709 11.8117 22.3109C11.7317 22.3319 11.6827 22.4179 11.7077 22.5009C11.7327 22.5799 11.8187 22.6299 11.8977 22.6049Z" fill="currentColor"/>
<path d="M12.3852 32.1381L12.1432 32.2571C12.0702 32.2941 12.0392 32.3861 12.0762 32.4621C12.1042 32.5171 12.1592 32.5481 12.2142 32.5481C12.2352 32.5481 12.2602 32.5421 12.2812 32.5301L12.5202 32.4111C12.5962 32.3741 12.6272 32.2821 12.5902 32.2061C12.5502 32.1291 12.4622 32.0981 12.3852 32.1381Z" fill="currentColor"/>
<path d="M12.8139 14.2749H12.5749C12.4889 14.2749 12.4219 14.3419 12.4219 14.4279C12.4219 14.5139 12.4889 14.5809 12.5749 14.5809H12.8139C12.8999 14.5809 12.9669 14.5139 12.9669 14.4279C12.9669 14.3419 12.8989 14.2749 12.8139 14.2749Z" fill="currentColor"/>
<path d="M15.867 17.2719C15.882 17.2719 15.901 17.2689 15.916 17.2629L16.097 17.2049C16.177 17.1769 16.219 17.0919 16.192 17.0119C16.168 16.9289 16.079 16.8869 15.999 16.9139L15.818 16.9719C15.738 16.9999 15.696 17.0879 15.723 17.1679C15.744 17.2319 15.803 17.2719 15.867 17.2719Z" fill="currentColor"/>
<path d="M16.4332 10.295C16.4882 10.313 16.5342 10.368 16.5402 10.43C16.5462 10.51 16.6132 10.571 16.6932 10.571C16.6962 10.571 16.6992 10.571 16.7052 10.568C16.7882 10.562 16.8522 10.488 16.8462 10.406C16.8312 10.222 16.6962 10.057 16.5212 10.002C16.4382 9.97804 16.3532 10.023 16.3282 10.106C16.3052 10.185 16.3512 10.271 16.4332 10.295Z" fill="currentColor"/>
<path d="M17.1922 22.3052L17.3702 22.3692C17.3882 22.3752 17.4072 22.3782 17.4222 22.3782C17.4862 22.3782 17.5442 22.3382 17.5662 22.2772C17.5972 22.1972 17.5542 22.1092 17.4742 22.0812L17.2962 22.0172C17.2162 21.9892 17.1282 22.0292 17.1002 22.1092C17.0732 22.1892 17.1132 22.2772 17.1922 22.3052Z" fill="currentColor"/>
<path d="M17.8444 19.1331H18.0254C18.1114 19.1331 18.1784 19.0661 18.1784 18.9801C18.1784 18.8941 18.1114 18.8271 18.0254 18.8271H17.8444C17.7614 18.8271 17.6914 18.8941 17.6914 18.9801C17.6914 19.0661 17.7614 19.1331 17.8444 19.1331Z" fill="currentColor"/>
<path d="M18.092 30.004L17.97 30.123C17.909 30.181 17.909 30.279 17.967 30.337C17.998 30.368 18.037 30.3829 18.077 30.3829C18.105 30.3829 18.135 30.377 18.16 30.359C18.169 30.356 18.175 30.3499 18.184 30.3409L18.303 30.225C18.364 30.167 18.367 30.0689 18.309 30.0079C18.249 29.9459 18.154 29.946 18.092 30.004Z" fill="currentColor"/>
<path d="M18.7449 19.1331C18.7729 19.1331 18.8029 19.1241 18.8309 19.1051L19.0089 18.9861C19.0789 18.9401 19.0979 18.8451 19.0519 18.7751C19.0059 18.7051 18.9109 18.6861 18.8409 18.7321L18.6599 18.8511C18.5899 18.9001 18.5709 18.9951 18.6169 19.0651C18.6469 19.1091 18.6959 19.1331 18.7449 19.1331Z" fill="currentColor"/>
<path d="M18.7694 38.3499L18.7084 38.4109C18.5894 38.5299 18.5894 38.7259 18.7084 38.8429C18.7694 38.9039 18.8464 38.9319 18.9254 38.9319C19.0024 38.9319 19.0814 38.9039 19.1424 38.8429L19.2004 38.7849C19.3194 38.6659 19.3194 38.4729 19.2004 38.3529C19.0814 38.2299 18.8894 38.2299 18.7694 38.3499Z" fill="currentColor"/>
<path d="M20.0611 33.8682C20.0861 33.8682 20.1071 33.8622 20.1311 33.8532L20.2501 33.7922C20.2781 33.7802 20.2991 33.7612 20.3141 33.7372C20.3391 33.6942 20.3421 33.6362 20.3171 33.5872C20.2801 33.5102 20.1881 33.4802 20.1121 33.5202L19.9931 33.5782C19.9501 33.5962 19.9261 33.6332 19.9131 33.6732C19.9041 33.7072 19.9071 33.7462 19.9251 33.7832C19.9511 33.8372 20.0061 33.8682 20.0611 33.8682Z" fill="currentColor"/>
<path d="M20.584 11.1429C20.612 11.1949 20.664 11.2259 20.722 11.2259C20.743 11.2259 20.768 11.2228 20.789 11.2108C20.866 11.1738 20.896 11.0818 20.856 11.0058L20.737 10.7669C20.7 10.6899 20.608 10.6598 20.532 10.6998C20.455 10.7368 20.425 10.8288 20.465 10.9048L20.584 11.1429Z" fill="currentColor"/>
<path d="M20.841 39.2529H20.835H20.78C20.694 39.2529 20.627 39.3199 20.627 39.4059C20.627 39.4889 20.694 39.5589 20.78 39.5589H20.841C20.914 39.5589 20.976 39.5039 20.991 39.4369C20.994 39.4279 20.994 39.4159 20.994 39.4059C20.994 39.3199 20.923 39.2529 20.841 39.2529Z" fill="currentColor"/>
<path d="M21.6517 47.7913V47.4333C21.6517 47.3473 21.5847 47.2803 21.4987 47.2803C21.4127 47.2803 21.3457 47.3473 21.3457 47.4333V47.7913C21.3457 47.8773 21.4127 47.9443 21.4987 47.9443C21.5847 47.9443 21.6517 47.8773 21.6517 47.7913Z" fill="currentColor"/>
<path d="M21.8338 48.6882C21.8338 48.6052 21.7638 48.5352 21.6808 48.5352H21.6198C21.5338 48.5352 21.4668 48.6052 21.4668 48.6882C21.4668 48.7742 21.5338 48.8412 21.6198 48.8412H21.6808C21.7628 48.8412 21.8338 48.7742 21.8338 48.6882Z" fill="currentColor"/>
<path d="M22.2736 49.628L21.9736 49.509C21.8966 49.478 21.8056 49.515 21.7746 49.595C21.7436 49.672 21.7806 49.763 21.8606 49.794L22.1606 49.913C22.1786 49.922 22.1976 49.925 22.2156 49.925C22.2766 49.925 22.3346 49.888 22.3596 49.827C22.3906 49.75 22.3536 49.661 22.2736 49.628Z" fill="currentColor"/>
<path d="M23.3452 50.5892C23.1552 50.5222 22.9291 50.5892 22.8091 50.7512C22.7601 50.8182 22.7722 50.9132 22.8402 50.9652C22.8682 50.9862 22.9011 50.9962 22.9321 50.9962C22.9781 50.9962 23.0272 50.9752 23.0542 50.9352C23.0942 50.8802 23.1802 50.8552 23.2412 50.8772C23.3212 50.9052 23.4092 50.8652 23.4372 50.7852C23.4642 50.7052 23.4242 50.6172 23.3452 50.5892Z" fill="currentColor"/>
<path d="M24.1944 25.5439C24.2524 25.5439 24.3044 25.5129 24.3324 25.4579C24.3694 25.3809 24.3384 25.2899 24.2654 25.2529L24.1464 25.1919C24.0694 25.1549 23.9784 25.1859 23.9414 25.2619C23.9014 25.3349 23.9324 25.4269 24.0084 25.4669L24.1274 25.5249C24.1484 25.5379 24.1724 25.5439 24.1944 25.5439Z" fill="currentColor"/>
<path d="M24.255 26.6152H24.194C24.111 26.6152 24.041 26.6822 24.041 26.7682C24.041 26.8512 24.111 26.9212 24.194 26.9212H24.255C24.341 26.9212 24.408 26.8512 24.408 26.7682C24.408 26.6832 24.341 26.6152 24.255 26.6152Z" fill="currentColor"/>
<path d="M24.3742 10.7481C24.3832 10.7481 24.3951 10.7481 24.4051 10.7451C24.4851 10.7571 24.5611 10.6991 24.5731 10.6201C24.5851 10.5591 24.5521 10.4791 24.4961 10.4491C24.4351 10.4091 24.3492 10.4121 24.2912 10.4551C24.2392 10.4921 24.2111 10.5711 24.2271 10.6321C24.2431 10.7021 24.3072 10.7481 24.3742 10.7481Z" fill="currentColor"/>
<path d="M24.5419 27.5149L24.4199 27.6959C24.3739 27.7659 24.3919 27.8609 24.4629 27.9069C24.4879 27.9249 24.5179 27.9349 24.5459 27.9349C24.5979 27.9349 24.6439 27.9099 24.6749 27.8679L24.7939 27.6869C24.8429 27.6199 24.8249 27.5249 24.7539 27.4759C24.6829 27.4269 24.5879 27.4449 24.5419 27.5149Z" fill="currentColor"/>
<path d="M24.5851 11.5571C24.6281 11.5881 24.6521 11.6491 24.6431 11.7041C24.6251 11.7871 24.6801 11.8661 24.7621 11.8851C24.7711 11.8851 24.7801 11.8881 24.7931 11.8881C24.8631 11.8881 24.9281 11.8361 24.9431 11.7621C24.9771 11.5941 24.9031 11.4101 24.7621 11.3091C24.6951 11.2601 24.6001 11.2751 24.5481 11.3431C24.4991 11.4131 24.5141 11.5081 24.5851 11.5571Z" fill="currentColor"/>
<path d="M25.189 27.9352C25.106 27.9172 25.024 27.9692 25.005 28.0512L24.824 28.8292C24.806 28.9122 24.855 28.9942 24.937 29.0132C24.949 29.0162 24.962 29.0162 24.974 29.0162C25.041 29.0162 25.106 28.9702 25.121 28.9002L25.302 28.1192C25.32 28.0362 25.271 27.9562 25.189 27.9352Z" fill="currentColor"/>
<path d="M25.8013 28.483C25.5683 28.866 25.4153 29.3 25.3603 29.744C25.3513 29.827 25.4093 29.903 25.4953 29.912C25.5013 29.915 25.5073 29.915 25.5133 29.915C25.5893 29.915 25.6573 29.857 25.6663 29.78C25.7153 29.379 25.8533 28.987 26.0613 28.641C26.1073 28.571 26.0823 28.476 26.0093 28.433C25.9393 28.388 25.8443 28.412 25.8013 28.483Z" fill="currentColor"/>
<path d="M28.2686 32.371C28.2776 32.371 28.2866 32.371 28.2996 32.368C28.3826 32.353 28.4346 32.27 28.4186 32.187L28.3576 31.887C28.3426 31.804 28.2626 31.752 28.1766 31.768C28.0936 31.786 28.0416 31.866 28.0576 31.949L28.1186 32.249C28.1306 32.322 28.1946 32.371 28.2686 32.371Z" fill="currentColor"/>
<path d="M28.365 33.2981C28.365 33.2431 28.334 33.1881 28.279 33.1601C28.202 33.1231 28.111 33.1541 28.074 33.2301C28.043 33.2911 28.043 33.3681 28.074 33.4321C28.105 33.4991 28.163 33.5481 28.23 33.5641C28.242 33.5671 28.254 33.5671 28.267 33.5671C28.334 33.5671 28.399 33.5211 28.414 33.4511C28.43 33.3931 28.408 33.3351 28.365 33.2981Z" fill="currentColor"/>
<path d="M28.5577 34.5841L28.7357 34.5231C28.8157 34.4951 28.8577 34.4101 28.8307 34.3271C28.8067 34.2471 28.7177 34.2081 28.6377 34.2321L28.4567 34.2931C28.3767 34.3211 28.3347 34.4061 28.3617 34.4891C28.3827 34.5501 28.4447 34.5901 28.5087 34.5901C28.5247 34.5901 28.5397 34.5901 28.5577 34.5841Z" fill="currentColor"/>
<path d="M28.5695 63.3921H28.5085C28.4225 63.3921 28.3555 63.4591 28.3555 63.5451C28.3555 63.6281 28.4225 63.6981 28.5085 63.6981H28.5695C28.6525 63.6981 28.7225 63.6281 28.7225 63.5451C28.7225 63.4591 28.6515 63.3921 28.5695 63.3921Z" fill="currentColor"/>
<path d="M28.7704 34.9729L28.5374 35.1629C28.4734 35.2149 28.4604 35.3099 28.5134 35.3769C28.5444 35.4139 28.5904 35.4349 28.6324 35.4349C28.6664 35.4349 28.7024 35.4229 28.7304 35.4009L28.9634 35.2109C29.0274 35.1589 29.0404 35.0609 28.9844 34.9969C28.9324 34.9299 28.8374 34.9209 28.7704 34.9729Z" fill="currentColor"/>
<path d="M29.1953 64.1719L28.8953 64.2329C28.8123 64.2479 28.7603 64.3279 28.7763 64.4109C28.7913 64.4839 28.8563 64.5359 28.9263 64.5359C28.9353 64.5359 28.9443 64.5329 28.9573 64.5329L29.2573 64.4719C29.3403 64.4539 29.3923 64.3739 29.3763 64.2909C29.3573 64.2089 29.2783 64.1539 29.1953 64.1719Z" fill="currentColor"/>
<path d="M30.1237 73.5132C30.0407 73.5132 29.9707 73.5802 29.9707 73.6662V73.7272C29.9707 73.8102 30.0407 73.8802 30.1237 73.8802C30.2097 73.8802 30.2767 73.8102 30.2767 73.7272V73.6662C30.2767 73.5802 30.2087 73.5132 30.1237 73.5132Z" fill="currentColor"/>
<path d="M30.816 74.8039C30.816 74.7179 30.749 74.6509 30.663 74.6509H30.485C30.399 74.6509 30.332 74.7179 30.332 74.8039C30.332 74.8899 30.399 74.9569 30.485 74.9569H30.663C30.748 74.9579 30.816 74.8899 30.816 74.8039Z" fill="currentColor"/>
<path d="M31.3235 75.4902H30.8425C30.7565 75.4902 30.6895 75.5572 30.6895 75.6432C30.6895 75.7262 30.7565 75.7962 30.8425 75.7962H31.3235C31.4065 75.7962 31.4765 75.7262 31.4765 75.6432C31.4765 75.5582 31.4055 75.4902 31.3235 75.4902Z" fill="currentColor"/>
<path d="M31.3815 57.9451C31.4675 57.9451 31.5345 57.8781 31.5345 57.7921V57.7341C31.5345 57.6481 31.4675 57.5811 31.3815 57.5811C31.2985 57.5811 31.2285 57.6481 31.2285 57.7341V57.7921C31.2285 57.8781 31.2985 57.9451 31.3815 57.9451Z" fill="currentColor"/>
<path d="M31.6393 58.8822L31.8173 58.9432C31.8353 58.9492 31.8513 58.9522 31.8663 58.9522C31.9303 58.9522 31.9924 58.9092 32.0134 58.8452C32.0374 58.7652 31.9954 58.6802 31.9154 58.6522L31.7343 58.5942C31.6543 58.5632 31.5694 58.6092 31.5414 58.6892C31.5144 58.7692 31.5563 58.8582 31.6393 58.8822Z" fill="currentColor"/>
<path d="M31.9473 59.651C31.9473 59.737 32.0143 59.804 32.1003 59.804H32.4583C32.5443 59.804 32.6113 59.737 32.6113 59.651C32.6113 59.565 32.5443 59.498 32.4583 59.498H32.1003C32.0153 59.498 31.9473 59.565 31.9473 59.651Z" fill="currentColor"/>
<path d="M32.5199 60.2169C32.4529 60.1709 32.3549 60.1889 32.3089 60.2599C32.2599 60.3299 32.2779 60.4249 32.3489 60.4709C32.4319 60.5259 32.5329 60.5569 32.6369 60.5569C32.6769 60.5569 32.7169 60.5509 32.7559 60.5449C32.8999 60.5109 33.0249 60.4259 33.0959 60.3059C33.1389 60.2329 33.1139 60.1409 33.0409 60.0979C32.9709 60.0519 32.8759 60.0769 32.8329 60.1499C32.8049 60.1959 32.7529 60.2299 32.6889 60.2449C32.6269 60.2599 32.5659 60.2479 32.5199 60.2169Z" fill="currentColor"/>
<path d="M39.3483 86.0303C39.2653 86.0303 39.1953 86.1003 39.1953 86.1833V86.2443C39.1953 86.3273 39.2653 86.3973 39.3483 86.3973C39.4343 86.3973 39.5013 86.3273 39.5013 86.2443V86.1833C39.5013 86.1013 39.4333 86.0303 39.3483 86.0303Z" fill="currentColor"/>
<path d="M40.3052 86.811H40.1862C40.1032 86.811 40.0332 86.878 40.0332 86.964C40.0332 87.047 40.1032 87.117 40.1862 87.117H40.3052C40.3912 87.117 40.4582 87.047 40.4582 86.964C40.4582 86.878 40.3912 86.811 40.3052 86.811Z" fill="currentColor"/>
<path d="M41.2631 87.3501H41.0241C40.9411 87.3501 40.8711 87.4171 40.8711 87.5031C40.8711 87.5861 40.9411 87.6561 41.0241 87.6561H41.2631C41.3491 87.6561 41.4161 87.5861 41.4161 87.5031C41.4161 87.4171 41.3491 87.3501 41.2631 87.3501Z" fill="currentColor"/>
<path d="M42.2121 87.7108L41.7991 87.9038C41.7221 87.9378 41.6891 88.0288 41.7261 88.1058C41.7511 88.1608 41.8061 88.1948 41.8641 88.1948C41.8851 88.1948 41.9101 88.1918 41.9281 88.1798L42.3411 87.9898C42.4181 87.9528 42.4511 87.8608 42.4181 87.7848C42.3801 87.7078 42.2891 87.6738 42.2121 87.7108Z" fill="currentColor"/>
<path d="M42.3541 46.8201C42.3851 46.8511 42.4241 46.8661 42.4641 46.8661C42.5011 46.8661 42.5411 46.8511 42.5711 46.8201C42.6321 46.7621 42.6321 46.6641 42.5711 46.6061L42.5101 46.5451C42.4491 46.4841 42.3541 46.4871 42.2931 46.5451C42.2351 46.6061 42.2351 46.7011 42.2961 46.7621L42.3541 46.8201Z" fill="currentColor"/>
<path d="M42.8822 47.5252C42.9032 47.5252 42.9282 47.5192 42.9492 47.5102L43.0682 47.4492C43.1442 47.4122 43.1752 47.3202 43.1352 47.2442C43.0982 47.1682 43.0062 47.1372 42.9302 47.1772L42.8112 47.2352C42.7382 47.2752 42.7072 47.3672 42.7442 47.4402C42.7722 47.4942 42.8242 47.5252 42.8822 47.5252Z" fill="currentColor"/>
<path d="M43.3003 48.1182C43.3153 48.1182 43.3313 48.1152 43.3463 48.1092C43.5023 48.0602 43.6313 47.9412 43.6893 47.7882C43.7203 47.7082 43.6833 47.6202 43.6033 47.5922C43.5233 47.5582 43.4353 47.5982 43.4043 47.6782C43.3803 47.7422 43.3213 47.7972 43.2543 47.8192C43.1743 47.8432 43.1283 47.9292 43.1533 48.0122C43.1743 48.0762 43.2363 48.1182 43.3003 48.1182Z" fill="currentColor"/>
<path d="M44.5597 70.519H44.4987C44.4127 70.519 44.3457 70.586 44.3457 70.672C44.3457 70.758 44.4127 70.825 44.4987 70.825H44.5597C44.6427 70.825 44.7127 70.758 44.7127 70.672C44.7127 70.586 44.6427 70.519 44.5597 70.519Z" fill="currentColor"/>
<path d="M45.1541 71.0541C45.1171 71.1001 45.0561 71.1241 44.9951 71.1181C44.9091 71.1121 44.8361 71.1701 44.8271 71.2531C44.8181 71.3391 44.8761 71.4121 44.9621 71.4241C44.9801 71.4241 44.9961 71.4271 45.0141 71.4271C45.1611 71.4271 45.3051 71.3571 45.3941 71.2401C45.4461 71.1761 45.4371 71.0781 45.3691 71.0261C45.3011 70.9751 45.2061 70.9871 45.1541 71.0541Z" fill="currentColor"/>
<path d="M46.9667 39.0229C46.8897 38.9829 46.7987 39.0139 46.7617 39.0899C46.7217 39.1669 46.7527 39.2579 46.8287 39.2949L46.9477 39.3559C46.9687 39.3679 46.9937 39.3709 47.0177 39.3709C47.0727 39.3709 47.1247 39.3399 47.1527 39.2879C47.1927 39.2119 47.1617 39.1199 47.0857 39.0829L46.9667 39.0229Z" fill="currentColor"/>
<path d="M47.7437 40.0432L47.5657 40.1042C47.4857 40.1322 47.4437 40.2172 47.4677 40.2972C47.4927 40.3612 47.5507 40.4012 47.6147 40.4012C47.6297 40.4012 47.6487 40.3982 47.6637 40.3952L47.8447 40.3342C47.9247 40.3062 47.9667 40.2182 47.9397 40.1382C47.9117 40.0582 47.8237 40.0152 47.7437 40.0432Z" fill="currentColor"/>
<path d="M48.5056 47.5121L48.3246 47.4511C48.2416 47.4231 48.1566 47.4691 48.1316 47.5491C48.1036 47.6291 48.1466 47.7141 48.2266 47.7421L48.4076 47.8031C48.4226 47.8091 48.4416 47.8091 48.4566 47.8091C48.5206 47.8091 48.5786 47.7691 48.6006 47.7051C48.6286 47.6261 48.5856 47.5401 48.5056 47.5121Z" fill="currentColor"/>
<path d="M48.4112 40.6211L48.2302 40.8021C48.1722 40.8601 48.1692 40.9581 48.2302 41.0161C48.2612 41.0471 48.3002 41.0621 48.3372 41.0621C48.3772 41.0621 48.4172 41.0471 48.4472 41.0191L48.6252 40.8381C48.6862 40.7801 48.6862 40.6821 48.6282 40.6211C48.5672 40.5631 48.4732 40.5631 48.4112 40.6211Z" fill="currentColor"/>
<path d="M48.3932 53.0869C48.3072 53.0869 48.2402 53.1569 48.2402 53.2399V53.3009C48.2402 53.3869 48.3072 53.4539 48.3932 53.4539C48.4762 53.4539 48.5462 53.3869 48.5462 53.3009V53.2399C48.5462 53.1569 48.4762 53.0869 48.3932 53.0869Z" fill="currentColor"/>
<path d="M48.9907 53.8062H48.8717C48.7887 53.8062 48.7188 53.8762 48.7188 53.9592C48.7188 54.0452 48.7887 54.1122 48.8717 54.1122H48.9907C49.0767 54.1122 49.1437 54.0452 49.1437 53.9592C49.1437 53.8772 49.0767 53.8062 48.9907 53.8062Z" fill="currentColor"/>
<path d="M49.1233 23.2822C49.1543 23.3132 49.1933 23.3282 49.2333 23.3282C49.2703 23.3282 49.3103 23.3132 49.3403 23.2822C49.3983 23.2212 49.3983 23.1262 49.3403 23.0652L49.2793 23.0072C49.2213 22.9462 49.1233 22.9462 49.0653 23.0072C49.0043 23.0652 49.0043 23.1632 49.0653 23.2212L49.1233 23.2822Z" fill="currentColor"/>
<path d="M49.1805 23.9642C49.1195 24.0222 49.1165 24.1202 49.1745 24.1812C49.2445 24.2542 49.3425 24.2942 49.4405 24.2942C49.4925 24.2942 49.5415 24.2852 49.5905 24.2632C49.6675 24.2262 49.7005 24.1382 49.6675 24.0582C49.6335 23.9812 49.5425 23.9482 49.4655 23.9812C49.4445 23.9932 49.4135 23.9872 49.3985 23.9692C49.3395 23.9092 49.2415 23.9062 49.1805 23.9642Z" fill="currentColor"/>
<path d="M49.4977 24.883C49.4857 24.969 49.5407 25.045 49.6267 25.061C49.6637 25.067 49.7037 25.07 49.7427 25.07C49.8587 25.07 49.9757 25.042 50.0797 24.987C50.1567 24.947 50.1837 24.855 50.1437 24.782C50.1067 24.705 50.0147 24.675 49.9387 24.715C49.8587 24.758 49.7637 24.773 49.6757 24.758C49.5897 24.745 49.5127 24.8 49.4977 24.883Z" fill="currentColor"/>
<path d="M49.772 54.645H49.53C49.447 54.645 49.377 54.712 49.377 54.798C49.377 54.884 49.447 54.951 49.53 54.951H49.772C49.855 54.951 49.925 54.884 49.925 54.798C49.925 54.713 49.854 54.645 49.772 54.645Z" fill="currentColor"/>
<path d="M50.358 55.0829C50.309 55.1719 50.214 55.2329 50.113 55.2419C50.03 55.2479 49.969 55.3249 49.975 55.4069C49.984 55.4869 50.048 55.5479 50.128 55.5479C50.131 55.5479 50.137 55.5479 50.143 55.5479C50.339 55.5299 50.526 55.4099 50.624 55.2359C50.667 55.1629 50.639 55.0679 50.569 55.0279C50.496 54.9849 50.401 55.0099 50.358 55.0829Z" fill="currentColor"/>
<path d="M54.752 13.0903C54.709 13.0203 54.614 12.9953 54.544 13.0383C54.471 13.0843 54.446 13.1763 54.492 13.2493L54.67 13.5493C54.701 13.5953 54.7499 13.6223 54.8019 13.6223C54.8299 13.6223 54.857 13.6163 54.882 13.6013C54.955 13.5583 54.977 13.4633 54.934 13.3903L54.752 13.0903Z" fill="currentColor"/>
<path d="M57.1978 8.52588H57.0788C56.9928 8.52588 56.9258 8.59288 56.9258 8.67888C56.9258 8.76488 56.9928 8.83188 57.0788 8.83188H57.1978C57.2288 8.83188 57.2588 8.82288 57.2838 8.80688C57.3238 8.77888 57.3508 8.72988 57.3508 8.67788C57.3518 8.59288 57.2808 8.52588 57.1978 8.52588Z" fill="currentColor"/>
<path d="M59.9479 6.77805C59.7889 6.71405 59.6109 6.79005 59.5499 6.94905L59.4309 7.24605C59.3669 7.40505 59.4429 7.58305 59.5989 7.64405C59.6389 7.65905 59.6759 7.66505 59.7119 7.66505C59.8339 7.66505 59.9509 7.59505 59.9969 7.47505L60.1189 7.17505C60.1799 7.01705 60.1039 6.83905 59.9479 6.77805Z" fill="currentColor"/>
<path d="M60.4339 33.7508C60.4589 33.7508 60.4799 33.7478 60.5039 33.7358L60.7429 33.6168C60.8159 33.5768 60.8469 33.4848 60.8099 33.4088C60.7699 33.3358 60.6779 33.3048 60.6049 33.3418L60.3629 33.4638C60.2899 33.5008 60.2589 33.5928 60.2989 33.6688C60.3239 33.7208 60.3789 33.7508 60.4339 33.7508Z" fill="currentColor"/>
<path d="M60.6319 10.0929C60.5949 10.0409 60.5159 10.0129 60.4539 10.0289C60.3739 10.0469 60.3249 10.1269 60.3409 10.2069C60.3319 10.2869 60.3869 10.3629 60.4669 10.3749C60.4729 10.3779 60.4819 10.3779 60.4879 10.3779C60.5459 10.3779 60.6099 10.3439 60.6379 10.2979C60.6779 10.2369 60.6749 10.1509 60.6319 10.0929Z" fill="currentColor"/>
<path d="M60.6851 13.3022L60.6391 13.3482C60.5781 13.4062 60.5721 13.5102 60.6301 13.5712C60.6641 13.6022 60.7031 13.6202 60.7431 13.6202C60.7771 13.6202 60.8101 13.6082 60.8381 13.5772C60.8381 13.5772 60.8531 13.5652 60.8531 13.5622L60.8991 13.5192C60.9571 13.4612 60.9601 13.3632 60.8991 13.3052C60.8411 13.2432 60.7441 13.2432 60.6851 13.3022Z" fill="currentColor"/>
<path d="M60.9699 34.1653C60.9759 34.1653 60.9819 34.1653 60.9879 34.1623C61.2239 34.1343 61.4469 34.0003 61.5789 33.8043C61.6279 33.7343 61.6099 33.6393 61.5389 33.5903C61.4689 33.5443 61.3739 33.5623 61.3249 33.6333C61.2419 33.7553 61.1009 33.8413 60.9519 33.8603C60.8689 33.8693 60.8079 33.9463 60.8199 34.0313C60.8289 34.1073 60.8939 34.1653 60.9699 34.1653Z" fill="currentColor"/>
<path d="M61.2822 46.8108L61.1012 46.8718C61.0212 46.8998 60.9792 46.9848 61.0062 47.0648C61.0272 47.1288 61.0892 47.1688 61.1532 47.1688C61.1682 47.1688 61.1842 47.1658 61.2022 47.1598L61.3802 47.1018C61.4602 47.0738 61.5022 46.9858 61.4782 46.9058C61.4512 46.8268 61.3622 46.7838 61.2822 46.8108Z" fill="currentColor"/>
<path d="M61.4204 34.5291C61.4354 34.6021 61.5004 34.6551 61.5734 34.6551C61.5794 34.6551 61.5884 34.6551 61.5974 34.6551C61.9464 34.5911 62.2644 34.3891 62.4694 34.1011C62.5184 34.0341 62.5034 33.9361 62.4324 33.8871C62.3654 33.8381 62.2674 33.8561 62.2184 33.9241C62.0594 34.1471 61.8144 34.3041 61.5444 34.3531C61.4604 34.3671 61.4054 34.4461 61.4204 34.5291Z" fill="currentColor"/>
<path d="M62.0798 46.949C62.0458 47.029 61.9728 47.093 61.8898 47.114C61.8068 47.138 61.7608 47.221 61.7828 47.304C61.8008 47.371 61.8628 47.414 61.9298 47.414C61.9448 47.414 61.9578 47.414 61.9728 47.411C62.1438 47.362 62.2908 47.233 62.3618 47.071C62.3958 46.991 62.3588 46.903 62.2818 46.869C62.2058 46.836 62.1138 46.873 62.0798 46.949Z" fill="currentColor"/>
<path d="M62.715 46.8449C62.648 46.8969 62.632 46.9919 62.684 47.0589C62.693 47.0739 62.693 47.1049 62.684 47.1289C62.672 47.1569 62.65 47.1779 62.632 47.1779C62.549 47.1899 62.488 47.2669 62.497 47.3489C62.506 47.4259 62.573 47.4839 62.65 47.4839C62.656 47.4839 62.662 47.4839 62.668 47.4839C62.797 47.4689 62.91 47.3799 62.965 47.2509C63.017 47.1219 63.005 46.9789 62.928 46.8739C62.877 46.8079 62.782 46.7959 62.715 46.8449Z" fill="currentColor"/>
<path d="M63.4745 20.0331L63.2965 19.9721C63.2135 19.9441 63.1285 19.9901 63.1005 20.0701C63.0765 20.1501 63.1185 20.2351 63.1985 20.2631L63.3795 20.3241C63.3945 20.3301 63.4105 20.3301 63.4285 20.3301C63.4925 20.3301 63.5505 20.2901 63.5725 20.2261C63.6005 20.1471 63.5575 20.0611 63.4745 20.0331Z" fill="currentColor"/>
<path d="M63.9609 11.9478C63.8779 11.9228 63.7929 11.9628 63.7649 12.0428L63.7039 12.2238C63.6759 12.3038 63.7189 12.3918 63.7989 12.4168C63.8169 12.4228 63.8329 12.4258 63.8509 12.4258C63.9119 12.4258 63.9729 12.3858 63.9949 12.3218L64.0559 12.1438C64.0829 12.0648 64.0409 11.9758 63.9609 11.9478Z" fill="currentColor"/>
<path d="M63.966 34.7073C64.003 34.7073 64.043 34.6923 64.073 34.6613L64.134 34.6033C64.192 34.5423 64.192 34.4473 64.134 34.3863C64.073 34.3283 63.975 34.3283 63.917 34.3863L63.856 34.4473C63.798 34.5053 63.798 34.6033 63.856 34.6613C63.887 34.6913 63.926 34.7073 63.966 34.7073Z" fill="currentColor"/>
<path d="M64.741 34.9418C64.775 34.9418 64.808 34.9328 64.836 34.9108C64.943 34.8248 65.01 34.6998 65.023 34.5648C65.029 34.4818 64.965 34.4088 64.882 34.3998C64.793 34.3938 64.723 34.4578 64.717 34.5408C64.714 34.5898 64.686 34.6388 64.647 34.6698C64.583 34.7218 64.57 34.8198 64.622 34.8838C64.652 34.9238 64.695 34.9418 64.741 34.9418Z" fill="currentColor"/>
<path d="M66.8991 38.4722C66.8161 38.4722 66.7461 38.5422 66.7461 38.6252V38.8062C66.7461 38.8922 66.8161 38.9592 66.8991 38.9592C66.9851 38.9592 67.0521 38.8922 67.0521 38.8062V38.6252C67.0521 38.5432 66.9851 38.4722 66.8991 38.4722Z" fill="currentColor"/>
<path d="M68.619 10.4669L68.5 10.7059C68.463 10.7829 68.494 10.8739 68.567 10.9109C68.592 10.9229 68.613 10.9289 68.637 10.9289C68.692 10.9289 68.747 10.8949 68.772 10.8429L68.894 10.6039C68.931 10.5269 68.9 10.4359 68.824 10.3989C68.751 10.3599 68.659 10.3899 68.619 10.4669Z" fill="currentColor"/>
<path d="M69.2364 9.37717L69.1174 9.55517C69.0684 9.62517 69.0864 9.72017 69.1574 9.76917C69.1854 9.78417 69.2124 9.79417 69.2434 9.79417C69.2924 9.79417 69.3414 9.76917 69.3694 9.72717L69.4914 9.54917C69.5404 9.47917 69.5224 9.38417 69.4514 9.33517C69.3804 9.28817 69.2854 9.30617 69.2364 9.37717Z" fill="currentColor"/>
<path d="M71.8014 17.8603C71.7404 17.7993 71.6454 17.7963 71.5844 17.8573C71.5234 17.9153 71.5204 18.0103 71.5814 18.0713L71.8754 18.3773C71.9064 18.4083 71.9454 18.4233 71.9854 18.4233C72.0224 18.4233 72.0624 18.4083 72.0894 18.3803C72.1504 18.3223 72.1534 18.2243 72.0954 18.1633L71.8014 17.8603Z" fill="currentColor"/>
<path d="M73.7526 37.9393C73.6026 37.8593 73.4156 37.9153 73.3366 38.0653C73.2566 38.2123 73.3156 38.3993 73.4626 38.4783C73.5356 38.5183 73.5916 38.5853 73.6186 38.6623C73.6616 38.7913 73.7806 38.8733 73.9096 38.8733C73.9406 38.8733 73.9736 38.8673 74.0046 38.8583C74.1636 38.8033 74.2526 38.6313 74.2006 38.4723C74.1236 38.2463 73.9606 38.0503 73.7526 37.9393Z" fill="currentColor"/>
<path d="M73.6064 27.2771C73.6434 27.2771 73.6794 27.2651 73.7104 27.2371C73.7314 27.2161 73.7714 27.2061 73.8024 27.2161C73.8854 27.2401 73.9674 27.1951 73.9924 27.1151C74.0174 27.0351 73.9744 26.9501 73.8914 26.9251C73.7594 26.8821 73.6064 26.9191 73.5024 27.0111C73.4414 27.0691 73.4354 27.1671 73.4934 27.2281C73.5244 27.2611 73.5644 27.2771 73.6064 27.2771Z" fill="currentColor"/>
<path d="M74.762 32.3921C74.835 32.4591 74.936 32.4961 75.037 32.4961C75.074 32.4961 75.114 32.4931 75.15 32.4811C75.23 32.4571 75.276 32.3711 75.251 32.2911C75.239 32.2571 75.22 32.2301 75.196 32.2111C75.159 32.1831 75.11 32.1711 75.061 32.1871C75.03 32.1961 74.991 32.1871 74.969 32.1661C74.908 32.1111 74.81 32.1141 74.752 32.1751C74.709 32.2211 74.7 32.2851 74.724 32.3401C74.731 32.3591 74.743 32.3771 74.762 32.3921Z" fill="currentColor"/>
<path d="M75.8265 14.6912C75.6705 14.6212 75.4985 14.5932 75.3275 14.6022C75.1595 14.6112 75.0305 14.7552 75.0395 14.9232C75.0485 15.0912 75.1955 15.2172 75.3645 15.2112C75.4375 15.2082 75.5115 15.2202 75.5785 15.2512C75.6185 15.2692 75.6615 15.2792 75.7045 15.2792C75.8205 15.2792 75.9345 15.2092 75.9835 15.0952C76.0525 14.9422 75.9825 14.7592 75.8265 14.6912Z" fill="currentColor"/>
</svg>
