<svg width="74" height="44" viewBox="0 0 74 44" fill="none" xmlns="http://www.w3.org/2000/svg">
<path d="M72.147 17.5438C57.94 2.40676 46.5611 -2.97224 38.3311 1.55176C37.2139 2.16504 35.9873 2.16504 34.8741 1.55176C26.6397 -2.97164 15.2651 2.40723 1.05806 17.5438C-0.199744 18.8836 -0.352144 20.8836 0.686966 22.3993C7.21037 31.8954 18.734 43.2113 36.601 43.2113C54.468 43.2113 65.992 31.8953 72.515 22.3993C73.558 20.8837 73.4049 18.8876 72.147 17.5438ZM28.6741 1.77776C30.6038 1.77776 32.385 2.22307 34.01 3.11756C35.6545 4.02381 37.5412 4.02381 39.1897 3.11756C46.6155 -0.964437 57.2677 4.29726 70.8417 18.7656C71.1463 19.0898 71.3221 19.4843 71.3846 19.8945C60.1506 18.1836 50.1776 18.2617 41.7366 20.1406C38.4241 20.8788 34.7718 20.8788 31.4596 20.1406C23.0221 18.2617 13.0456 18.1836 1.81163 19.8945C1.87413 19.4843 2.04991 19.0898 2.3546 18.7656C12.9636 7.46456 21.7841 1.77776 28.6741 1.77776ZM36.5999 41.4258C19.6549 41.4258 8.62686 30.7148 2.32286 21.6208C13.2409 19.9802 22.9129 20.0622 31.0769 21.8825C32.8542 22.277 34.7292 22.4762 36.6003 22.4762C38.4714 22.4762 40.3464 22.277 42.1276 21.8825C50.2917 20.0661 59.9595 19.9802 70.8775 21.6208C64.5728 30.7146 53.5449 41.4258 36.5999 41.4258Z" fill="currentColor"/>
</svg>
