<svg width="39" height="80" viewBox="0 0 39 80" fill="none" xmlns="http://www.w3.org/2000/svg">
<path d="M35.6414 49.8393C35.2654 49.4343 34.6334 49.4133 34.2274 49.7883C33.8234 50.1643 33.8004 50.7973 34.1764 51.2023C36.6274 53.8373 36.1334 56.3383 35.6204 57.5953C34.7714 59.6763 32.9114 61.0263 31.6744 61.0843C29.1094 61.2093 26.4414 60.2413 23.9974 59.0733C23.9754 59.0613 23.9524 59.0503 23.9284 59.0403C22.8434 58.5193 21.8024 57.9604 20.8344 57.4394C18.0564 55.9454 16.0464 54.8663 14.5994 55.5263C14.1644 55.7243 13.5994 56.1703 13.3714 57.1733C13.1794 58.0173 13.3564 58.7903 13.8834 59.4093C15.3824 61.1703 19.4654 61.2003 23.3324 60.9723C25.7894 62.1313 28.4874 63.0943 31.2304 63.0943C31.4094 63.0943 31.5884 63.0903 31.7684 63.0823C33.9624 62.9793 36.4144 60.9453 37.4734 58.3503C38.6514 55.4603 37.9844 52.3583 35.6414 49.8393ZM15.4064 58.1143C15.3304 58.0253 15.2564 57.9063 15.3214 57.6173C15.3694 57.4043 15.4264 57.3483 15.4264 57.3483C15.8904 57.0833 18.0514 58.2163 19.6204 59.0573C16.8294 58.9883 15.7694 58.5413 15.4064 58.1143ZM15.1634 62.5423C13.9544 62.3493 12.7044 62.1503 11.6104 61.7983C5.02338 59.6783 1.70738 55.5183 2.02138 49.7683C2.23838 45.7943 7.20338 39.9383 12.4594 33.7393C21.3214 23.2863 31.3654 11.4393 26.9804 0.624347C26.7724 0.112347 26.1904 -0.133653 25.6774 0.0733468C25.1654 0.281347 24.9194 0.864347 25.1264 1.37635C29.0564 11.0683 19.4284 22.4253 10.9334 32.4453C5.21538 39.1893 0.277377 45.0143 0.0233775 49.6583C-0.340623 56.3203 3.55638 61.3074 10.9974 63.7024C12.2364 64.1004 13.5634 64.3123 14.8474 64.5173C16.9224 64.8483 18.8824 65.1613 19.5604 66.1573C19.8874 66.6373 19.9444 67.3333 19.7344 68.2843C18.9204 71.9763 18.3304 75.5613 18.0284 78.6533C17.9744 79.2033 18.3764 79.6923 18.9264 79.7453C18.9594 79.7483 18.9924 79.7503 19.0244 79.7503C19.5334 79.7503 19.9684 79.3643 20.0184 78.8473C20.3124 75.8333 20.8904 72.3293 21.6864 68.7143C22.0204 67.1953 21.8654 65.9913 21.2114 65.0303C20.0514 63.3223 17.6774 62.9433 15.1634 62.5423Z" fill="currentColor"/>
</svg>
